<svg xmlns="http://www.w3.org/2000/svg" xmlns:xlink="http://www.w3.org/1999/xlink" width="500" zoomAndPan="magnify" viewBox="0 0 375 374.999991" height="500" preserveAspectRatio="xMidYMid meet" version="1.0"><defs><clipPath id="96b5ded1c1"><path d="M 44.066406 44.066406 L 330.566406 44.066406 L 330.566406 330.566406 L 44.066406 330.566406 Z M 44.066406 44.066406 " clip-rule="nonzero"/></clipPath></defs><g clip-path="url(#96b5ded1c1)"><path fill="#63d8db" d="M 330.5625 187.316406 C 330.5625 189.660156 330.503906 192.003906 330.390625 194.34375 C 330.273438 196.683594 330.101562 199.023438 329.875 201.355469 C 329.644531 203.6875 329.355469 206.015625 329.011719 208.332031 C 328.667969 210.652344 328.269531 212.960938 327.808594 215.261719 C 327.351562 217.5625 326.839844 219.847656 326.269531 222.121094 C 325.699219 224.394531 325.074219 226.652344 324.394531 228.898438 C 323.714844 231.140625 322.980469 233.367188 322.1875 235.574219 C 321.398438 237.78125 320.554688 239.96875 319.660156 242.132812 C 318.761719 244.300781 317.8125 246.441406 316.808594 248.5625 C 315.808594 250.679688 314.753906 252.773438 313.648438 254.839844 C 312.542969 256.910156 311.386719 258.949219 310.183594 260.960938 C 308.976562 262.96875 307.722656 264.949219 306.421875 266.898438 C 305.117188 268.847656 303.769531 270.765625 302.371094 272.648438 C 300.976562 274.53125 299.535156 276.378906 298.046875 278.191406 C 296.558594 280.003906 295.027344 281.777344 293.453125 283.515625 C 291.878906 285.25 290.265625 286.949219 288.605469 288.605469 C 286.949219 290.265625 285.25 291.878906 283.515625 293.453125 C 281.777344 295.027344 280.003906 296.558594 278.191406 298.046875 C 276.378906 299.535156 274.53125 300.976562 272.648438 302.371094 C 270.765625 303.769531 268.847656 305.117188 266.898438 306.421875 C 264.949219 307.722656 262.96875 308.976562 260.960938 310.183594 C 258.949219 311.386719 256.910156 312.542969 254.839844 313.648438 C 252.773438 314.753906 250.679688 315.808594 248.5625 316.808594 C 246.441406 317.8125 244.300781 318.761719 242.132812 319.660156 C 239.96875 320.554688 237.78125 321.398438 235.574219 322.1875 C 233.367188 322.980469 231.140625 323.714844 228.898438 324.394531 C 226.652344 325.074219 224.394531 325.699219 222.121094 326.269531 C 219.847656 326.839844 217.5625 327.351562 215.261719 327.808594 C 212.960938 328.269531 210.652344 328.667969 208.332031 329.011719 C 206.015625 329.355469 203.6875 329.644531 201.355469 329.875 C 199.023438 330.101562 196.683594 330.273438 194.34375 330.390625 C 192.003906 330.503906 189.660156 330.5625 187.316406 330.5625 C 184.96875 330.5625 182.628906 330.503906 180.285156 330.390625 C 177.945312 330.273438 175.605469 330.101562 173.273438 329.875 C 170.941406 329.644531 168.613281 329.355469 166.296875 329.011719 C 163.976562 328.667969 161.667969 328.269531 159.367188 327.808594 C 157.070312 327.351562 154.78125 326.839844 152.507812 326.269531 C 150.234375 325.699219 147.976562 325.074219 145.730469 324.394531 C 143.488281 323.714844 141.261719 322.980469 139.054688 322.1875 C 136.847656 321.398438 134.664062 320.554688 132.496094 319.660156 C 130.332031 318.761719 128.1875 317.8125 126.070312 316.808594 C 123.949219 315.808594 121.855469 314.753906 119.789062 313.648438 C 117.722656 312.542969 115.683594 311.386719 113.671875 310.183594 C 111.660156 308.976562 109.679688 307.722656 107.730469 306.421875 C 105.78125 305.117188 103.867188 303.769531 101.980469 302.371094 C 100.097656 300.976562 98.25 299.535156 96.441406 298.046875 C 94.628906 296.558594 92.851562 295.027344 91.117188 293.453125 C 89.378906 291.878906 87.679688 290.265625 86.023438 288.605469 C 84.367188 286.949219 82.75 285.25 81.175781 283.515625 C 79.601562 281.777344 78.070312 280.003906 76.582031 278.191406 C 75.097656 276.378906 73.652344 274.53125 72.257812 272.648438 C 70.859375 270.765625 69.511719 268.847656 68.207031 266.898438 C 66.90625 264.949219 65.652344 262.96875 64.449219 260.960938 C 63.242188 258.949219 62.085938 256.910156 60.980469 254.839844 C 59.875 252.773438 58.824219 250.679688 57.820312 248.5625 C 56.816406 246.441406 55.867188 244.300781 54.972656 242.132812 C 54.074219 239.96875 53.230469 237.78125 52.441406 235.574219 C 51.652344 233.367188 50.914062 231.140625 50.234375 228.898438 C 49.554688 226.652344 48.929688 224.394531 48.359375 222.121094 C 47.789062 219.847656 47.277344 217.5625 46.820312 215.261719 C 46.363281 212.960938 45.960938 210.652344 45.617188 208.332031 C 45.273438 206.015625 44.988281 203.6875 44.757812 201.355469 C 44.527344 199.023438 44.355469 196.683594 44.238281 194.34375 C 44.125 192.003906 44.066406 189.660156 44.066406 187.316406 C 44.066406 184.96875 44.125 182.628906 44.238281 180.285156 C 44.355469 177.945312 44.527344 175.605469 44.757812 173.273438 C 44.988281 170.941406 45.273438 168.613281 45.617188 166.296875 C 45.960938 163.976562 46.363281 161.667969 46.820312 159.367188 C 47.277344 157.070312 47.789062 154.78125 48.359375 152.507812 C 48.929688 150.234375 49.554688 147.976562 50.234375 145.730469 C 50.914062 143.488281 51.652344 141.261719 52.441406 139.054688 C 53.230469 136.847656 54.074219 134.664062 54.972656 132.496094 C 55.867188 130.332031 56.816406 128.1875 57.820312 126.070312 C 58.824219 123.949219 59.875 121.855469 60.980469 119.789062 C 62.085938 117.722656 63.242188 115.683594 64.449219 113.671875 C 65.652344 111.660156 66.90625 109.679688 68.207031 107.730469 C 69.511719 105.78125 70.859375 103.867188 72.257812 101.980469 C 73.652344 100.097656 75.097656 98.25 76.582031 96.441406 C 78.070312 94.628906 79.601562 92.851562 81.175781 91.117188 C 82.75 89.378906 84.367188 87.679688 86.023438 86.023438 C 87.679688 84.367188 89.378906 82.75 91.117188 81.175781 C 92.851562 79.601562 94.628906 78.070312 96.441406 76.582031 C 98.25 75.097656 100.097656 73.652344 101.980469 72.257812 C 103.867188 70.859375 105.78125 69.511719 107.730469 68.207031 C 109.679688 66.90625 111.660156 65.652344 113.671875 64.449219 C 115.683594 63.242188 117.722656 62.085938 119.789062 60.980469 C 121.855469 59.875 123.949219 58.824219 126.070312 57.820312 C 128.1875 56.816406 130.332031 55.867188 132.496094 54.972656 C 134.664062 54.074219 136.847656 53.230469 139.054688 52.441406 C 141.261719 51.652344 143.488281 50.914062 145.730469 50.234375 C 147.976562 49.554688 150.234375 48.929688 152.507812 48.359375 C 154.78125 47.789062 157.070312 47.277344 159.367188 46.820312 C 161.667969 46.363281 163.976562 45.960938 166.296875 45.617188 C 168.613281 45.273438 170.941406 44.988281 173.273438 44.757812 C 175.605469 44.527344 177.945312 44.355469 180.285156 44.238281 C 182.628906 44.125 184.96875 44.066406 187.316406 44.066406 C 189.660156 44.066406 192.003906 44.125 194.34375 44.238281 C 196.683594 44.355469 199.023438 44.527344 201.355469 44.757812 C 203.6875 44.988281 206.015625 45.273438 208.332031 45.617188 C 210.652344 45.960938 212.960938 46.363281 215.261719 46.820312 C 217.5625 47.277344 219.847656 47.789062 222.121094 48.359375 C 224.394531 48.929688 226.652344 49.554688 228.898438 50.234375 C 231.140625 50.914062 233.367188 51.652344 235.574219 52.441406 C 237.78125 53.230469 239.96875 54.074219 242.132812 54.972656 C 244.300781 55.867188 246.441406 56.816406 248.5625 57.820312 C 250.679688 58.824219 252.773438 59.875 254.839844 60.980469 C 256.910156 62.085938 258.949219 63.242188 260.960938 64.445312 C 262.96875 65.652344 264.949219 66.90625 266.898438 68.207031 C 268.847656 69.511719 270.765625 70.859375 272.648438 72.257812 C 274.53125 73.652344 276.378906 75.097656 278.191406 76.582031 C 280.003906 78.070312 281.777344 79.601562 283.515625 81.175781 C 285.25 82.75 286.949219 84.367188 288.605469 86.023438 C 290.265625 87.679688 291.878906 89.378906 293.453125 91.117188 C 295.027344 92.851562 296.558594 94.628906 298.046875 96.441406 C 299.535156 98.25 300.976562 100.097656 302.371094 101.980469 C 303.769531 103.867188 305.117188 105.78125 306.421875 107.730469 C 307.722656 109.679688 308.976562 111.660156 310.183594 113.671875 C 311.386719 115.683594 312.542969 117.722656 313.648438 119.789062 C 314.753906 121.855469 315.808594 123.949219 316.808594 126.070312 C 317.8125 128.1875 318.761719 130.332031 319.660156 132.496094 C 320.554688 134.664062 321.398438 136.847656 322.1875 139.054688 C 322.980469 141.261719 323.714844 143.488281 324.394531 145.730469 C 325.074219 147.976562 325.699219 150.234375 326.269531 152.507812 C 326.839844 154.78125 327.351562 157.070312 327.808594 159.367188 C 328.269531 161.667969 328.667969 163.976562 329.011719 166.296875 C 329.355469 168.613281 329.644531 170.941406 329.875 173.273438 C 330.101562 175.605469 330.273438 177.945312 330.390625 180.285156 C 330.503906 182.628906 330.5625 184.96875 330.5625 187.316406 Z M 330.5625 187.316406 " fill-opacity="1" fill-rule="nonzero"/></g><path fill="#034d5a" d="M 152.027344 233.992188 L 267.84375 233.992188 C 269.03125 233.992188 269.992188 233.027344 269.992188 231.84375 L 269.992188 214.027344 C 269.992188 212.84375 269.027344 211.882812 267.84375 211.882812 L 152.027344 211.882812 Z M 152.027344 233.992188 " fill-opacity="1" fill-rule="evenodd"/><path fill="#034d5a" d="M 160.621094 278.917969 C 161.800781 278.917969 162.769531 277.960938 162.769531 276.773438 L 162.769531 169.101562 C 162.769531 167.195312 160.453125 166.230469 159.101562 167.582031 L 105.269531 221.414062 C 104.429688 222.253906 104.429688 223.613281 105.269531 224.453125 L 159.101562 278.289062 C 159.515625 278.699219 160.0625 278.917969 160.621094 278.917969 Z M 160.621094 278.917969 " fill-opacity="1" fill-rule="evenodd"/><path fill="#034d5a" d="M 220.8125 140.640625 L 106.785156 140.640625 C 105.601562 140.640625 104.640625 141.601562 104.640625 142.785156 L 104.640625 160.601562 C 104.640625 161.785156 105.601562 162.75 106.785156 162.75 L 220.8125 162.75 L 220.8125 140.636719 Z M 220.8125 140.640625 " fill-opacity="1" fill-rule="evenodd"/><path fill="#034d5a" d="M 214.007812 207.675781 C 214.566406 207.675781 215.117188 207.460938 215.527344 207.046875 L 269.363281 153.214844 C 270.199219 152.375 270.199219 151.011719 269.363281 150.175781 L 215.527344 96.339844 C 214.175781 94.992188 211.859375 95.953125 211.859375 97.859375 L 211.859375 205.53125 C 211.859375 206.722656 212.828125 207.675781 214.007812 207.675781 Z M 214.007812 207.675781 " fill-opacity="1" fill-rule="evenodd"/></svg>