<svg xmlns="http://www.w3.org/2000/svg" xmlns:xlink="http://www.w3.org/1999/xlink" width="500" zoomAndPan="magnify" viewBox="0 0 375 374.999991" height="500" preserveAspectRatio="xMidYMid meet" version="1.0"><defs><clipPath id="2e7ebdae98"><path d="M 42.878906 42.878906 L 332.378906 42.878906 L 332.378906 332.378906 L 42.878906 332.378906 Z M 42.878906 42.878906 " clip-rule="nonzero"/></clipPath></defs><g clip-path="url(#2e7ebdae98)"><path fill="#5dcbce" d="M 332.378906 187.628906 C 332.378906 190 332.320312 192.367188 332.207031 194.734375 C 332.089844 197.097656 331.914062 199.460938 331.683594 201.820312 C 331.449219 204.175781 331.160156 206.527344 330.8125 208.871094 C 330.464844 211.214844 330.0625 213.546875 329.597656 215.871094 C 329.136719 218.191406 328.617188 220.503906 328.042969 222.800781 C 327.464844 225.101562 326.835938 227.382812 326.148438 229.648438 C 325.460938 231.917969 324.71875 234.164062 323.917969 236.394531 C 323.121094 238.625 322.269531 240.835938 321.363281 243.023438 C 320.457031 245.210938 319.496094 247.378906 318.484375 249.519531 C 317.46875 251.660156 316.40625 253.777344 315.289062 255.863281 C 314.171875 257.953125 313.003906 260.015625 311.785156 262.046875 C 310.570312 264.078125 309.300781 266.078125 307.984375 268.050781 C 306.667969 270.019531 305.304688 271.957031 303.894531 273.859375 C 302.484375 275.761719 301.027344 277.628906 299.523438 279.457031 C 298.019531 281.289062 296.472656 283.082031 294.882812 284.839844 C 293.292969 286.59375 291.660156 288.308594 289.984375 289.984375 C 288.308594 291.660156 286.59375 293.292969 284.839844 294.882812 C 283.082031 296.472656 281.289062 298.019531 279.457031 299.523438 C 277.628906 301.027344 275.761719 302.484375 273.859375 303.894531 C 271.957031 305.304688 270.019531 306.667969 268.050781 307.984375 C 266.078125 309.300781 264.078125 310.570312 262.046875 311.785156 C 260.015625 313.003906 257.953125 314.171875 255.863281 315.289062 C 253.777344 316.40625 251.660156 317.46875 249.519531 318.484375 C 247.378906 319.496094 245.210938 320.457031 243.023438 321.363281 C 240.835938 322.269531 238.625 323.121094 236.394531 323.917969 C 234.164062 324.71875 231.914062 325.460938 229.648438 326.148438 C 227.382812 326.835938 225.101562 327.464844 222.800781 328.042969 C 220.503906 328.617188 218.191406 329.136719 215.871094 329.597656 C 213.546875 330.0625 211.210938 330.464844 208.871094 330.8125 C 206.527344 331.160156 204.175781 331.453125 201.816406 331.683594 C 199.460938 331.914062 197.097656 332.089844 194.734375 332.207031 C 192.367188 332.324219 190 332.378906 187.628906 332.378906 C 185.261719 332.378906 182.894531 332.324219 180.527344 332.207031 C 178.160156 332.089844 175.800781 331.914062 173.441406 331.683594 C 171.085938 331.453125 168.734375 331.160156 166.390625 330.8125 C 164.046875 330.464844 161.714844 330.0625 159.390625 329.597656 C 157.066406 329.136719 154.757812 328.617188 152.460938 328.042969 C 150.160156 327.464844 147.878906 326.835938 145.613281 326.148438 C 143.34375 325.460938 141.097656 324.71875 138.867188 323.917969 C 136.636719 323.121094 134.425781 322.269531 132.238281 321.363281 C 130.046875 320.457031 127.882812 319.496094 125.742188 318.484375 C 123.601562 317.46875 121.484375 316.40625 119.394531 315.289062 C 117.304688 314.171875 115.246094 313.003906 113.214844 311.785156 C 111.183594 310.570312 109.179688 309.300781 107.210938 307.984375 C 105.242188 306.667969 103.304688 305.304688 101.402344 303.894531 C 99.5 302.484375 97.632812 301.027344 95.800781 299.523438 C 93.972656 298.019531 92.175781 296.472656 90.421875 294.882812 C 88.667969 293.292969 86.953125 291.660156 85.277344 289.984375 C 83.601562 288.308594 81.96875 286.59375 80.378906 284.839844 C 78.785156 283.082031 77.238281 281.289062 75.738281 279.457031 C 74.234375 277.628906 72.777344 275.761719 71.367188 273.859375 C 69.953125 271.957031 68.589844 270.019531 67.273438 268.050781 C 65.960938 266.078125 64.691406 264.078125 63.472656 262.046875 C 62.257812 260.015625 61.089844 257.953125 59.972656 255.863281 C 58.855469 253.777344 57.789062 251.660156 56.777344 249.519531 C 55.765625 247.378906 54.804688 245.210938 53.898438 243.023438 C 52.992188 240.835938 52.140625 238.625 51.34375 236.394531 C 50.542969 234.164062 49.800781 231.917969 49.113281 229.648438 C 48.425781 227.382812 47.792969 225.101562 47.21875 222.800781 C 46.644531 220.503906 46.125 218.191406 45.660156 215.871094 C 45.199219 213.546875 44.792969 211.214844 44.445312 208.871094 C 44.097656 206.527344 43.808594 204.175781 43.578125 201.820312 C 43.34375 199.460938 43.171875 197.097656 43.054688 194.734375 C 42.9375 192.367188 42.878906 190 42.878906 187.628906 C 42.878906 185.261719 42.9375 182.894531 43.054688 180.527344 C 43.171875 178.160156 43.34375 175.800781 43.578125 173.441406 C 43.808594 171.085938 44.097656 168.734375 44.445312 166.390625 C 44.792969 164.046875 45.199219 161.714844 45.660156 159.390625 C 46.125 157.066406 46.644531 154.757812 47.21875 152.460938 C 47.792969 150.160156 48.425781 147.878906 49.113281 145.613281 C 49.800781 143.34375 50.542969 141.097656 51.34375 138.867188 C 52.140625 136.636719 52.992188 134.425781 53.898438 132.238281 C 54.804688 130.046875 55.765625 127.882812 56.777344 125.742188 C 57.789062 123.601562 58.855469 121.484375 59.972656 119.394531 C 61.089844 117.304688 62.257812 115.246094 63.472656 113.214844 C 64.691406 111.183594 65.960938 109.179688 67.273438 107.210938 C 68.589844 105.242188 69.953125 103.304688 71.367188 101.402344 C 72.777344 99.5 74.234375 97.632812 75.738281 95.800781 C 77.238281 93.972656 78.785156 92.175781 80.378906 90.421875 C 81.96875 88.667969 83.601562 86.953125 85.277344 85.277344 C 86.953125 83.601562 88.667969 81.96875 90.421875 80.378906 C 92.175781 78.785156 93.972656 77.238281 95.800781 75.738281 C 97.632812 74.234375 99.5 72.777344 101.402344 71.367188 C 103.304688 69.953125 105.242188 68.589844 107.210938 67.273438 C 109.179688 65.960938 111.183594 64.691406 113.214844 63.472656 C 115.246094 62.257812 117.304688 61.089844 119.394531 59.972656 C 121.484375 58.855469 123.601562 57.789062 125.742188 56.777344 C 127.882812 55.765625 130.046875 54.804688 132.238281 53.898438 C 134.425781 52.992188 136.636719 52.140625 138.867188 51.34375 C 141.097656 50.542969 143.34375 49.800781 145.613281 49.113281 C 147.878906 48.425781 150.160156 47.792969 152.460938 47.21875 C 154.757812 46.644531 157.066406 46.125 159.390625 45.660156 C 161.714844 45.199219 164.046875 44.792969 166.390625 44.445312 C 168.734375 44.097656 171.085938 43.808594 173.441406 43.578125 C 175.800781 43.34375 178.160156 43.171875 180.527344 43.054688 C 182.894531 42.9375 185.261719 42.878906 187.628906 42.878906 C 190 42.878906 192.367188 42.9375 194.734375 43.054688 C 197.097656 43.171875 199.460938 43.34375 201.816406 43.578125 C 204.175781 43.808594 206.527344 44.097656 208.871094 44.445312 C 211.210938 44.792969 213.546875 45.199219 215.871094 45.660156 C 218.191406 46.125 220.503906 46.644531 222.800781 47.21875 C 225.101562 47.792969 227.382812 48.425781 229.648438 49.113281 C 231.914062 49.800781 234.164062 50.542969 236.394531 51.34375 C 238.625 52.140625 240.835938 52.992188 243.023438 53.898438 C 245.210938 54.804688 247.378906 55.765625 249.519531 56.777344 C 251.660156 57.789062 253.777344 58.855469 255.863281 59.972656 C 257.953125 61.089844 260.015625 62.257812 262.046875 63.472656 C 264.078125 64.691406 266.078125 65.960938 268.050781 67.273438 C 270.019531 68.589844 271.957031 69.953125 273.859375 71.367188 C 275.761719 72.777344 277.628906 74.234375 279.457031 75.738281 C 281.289062 77.238281 283.082031 78.785156 284.839844 80.378906 C 286.59375 81.96875 288.308594 83.601562 289.984375 85.277344 C 291.660156 86.953125 293.292969 88.667969 294.882812 90.421875 C 296.472656 92.175781 298.019531 93.972656 299.523438 95.800781 C 301.027344 97.632812 302.484375 99.5 303.894531 101.402344 C 305.304688 103.304688 306.667969 105.242188 307.984375 107.210938 C 309.300781 109.179688 310.570312 111.183594 311.785156 113.214844 C 313.003906 115.246094 314.171875 117.304688 315.289062 119.394531 C 316.40625 121.484375 317.46875 123.601562 318.484375 125.742188 C 319.496094 127.882812 320.457031 130.046875 321.363281 132.238281 C 322.269531 134.425781 323.121094 136.636719 323.917969 138.867188 C 324.71875 141.097656 325.460938 143.34375 326.148438 145.613281 C 326.835938 147.878906 327.464844 150.160156 328.042969 152.460938 C 328.617188 154.757812 329.136719 157.066406 329.597656 159.390625 C 330.0625 161.714844 330.464844 164.046875 330.8125 166.390625 C 331.160156 168.734375 331.449219 171.085938 331.683594 173.441406 C 331.914062 175.800781 332.089844 178.160156 332.207031 180.527344 C 332.320312 182.894531 332.378906 185.261719 332.378906 187.628906 Z M 332.378906 187.628906 " fill-opacity="1" fill-rule="nonzero"/></g><path fill="#23606b" d="M 263.527344 140.578125 L 190.839844 90.671875 C 190.367188 90.347656 189.859375 90.101562 189.3125 89.933594 C 188.765625 89.761719 188.203125 89.675781 187.628906 89.675781 C 187.058594 89.675781 186.496094 89.761719 185.949219 89.933594 C 185.402344 90.101562 184.890625 90.347656 184.417969 90.671875 L 111.730469 140.578125 C 111.234375 140.921875 110.800781 141.332031 110.4375 141.8125 C 110.070312 142.292969 109.789062 142.820312 109.589844 143.394531 C 109.394531 143.964844 109.289062 144.550781 109.28125 145.15625 C 109.269531 145.761719 109.355469 146.351562 109.535156 146.929688 C 109.714844 147.507812 109.976562 148.042969 110.328125 148.535156 C 110.679688 149.027344 111.097656 149.453125 111.582031 149.8125 C 112.070312 150.171875 112.601562 150.445312 113.175781 150.636719 C 113.75 150.824219 114.339844 150.921875 114.941406 150.921875 L 260.316406 150.921875 C 260.921875 150.921875 261.511719 150.824219 262.085938 150.636719 C 262.660156 150.445312 263.191406 150.171875 263.675781 149.8125 C 264.164062 149.453125 264.582031 149.027344 264.933594 148.535156 C 265.28125 148.042969 265.546875 147.507812 265.726562 146.929688 C 265.90625 146.351562 265.992188 145.761719 265.980469 145.15625 C 265.972656 144.550781 265.867188 143.964844 265.667969 143.394531 C 265.472656 142.820312 265.191406 142.292969 264.824219 141.8125 C 264.457031 141.332031 264.027344 140.921875 263.527344 140.578125 Z M 263.527344 140.578125 " fill-opacity="1" fill-rule="nonzero"/><path fill="#23606b" d="M 133.566406 159.910156 L 144.957031 159.910156 C 145.359375 159.910156 145.761719 159.953125 146.15625 160.03125 C 146.554688 160.109375 146.9375 160.226562 147.3125 160.378906 C 147.683594 160.535156 148.039062 160.722656 148.375 160.949219 C 148.710938 161.171875 149.019531 161.425781 149.304688 161.714844 C 149.589844 162 149.847656 162.308594 150.070312 162.644531 C 150.292969 162.980469 150.484375 163.335938 150.636719 163.707031 C 150.792969 164.082031 150.910156 164.464844 150.988281 164.859375 C 151.066406 165.257812 151.105469 165.65625 151.105469 166.0625 L 151.105469 219.851562 C 151.105469 220.257812 151.066406 220.65625 150.988281 221.050781 C 150.910156 221.449219 150.792969 221.832031 150.636719 222.207031 C 150.484375 222.578125 150.292969 222.933594 150.070312 223.269531 C 149.847656 223.605469 149.589844 223.914062 149.304688 224.199219 C 149.019531 224.484375 148.710938 224.742188 148.375 224.964844 C 148.039062 225.191406 147.683594 225.378906 147.3125 225.535156 C 146.9375 225.6875 146.554688 225.804688 146.15625 225.882812 C 145.761719 225.960938 145.359375 226 144.957031 226 L 133.566406 226 C 133.160156 226 132.761719 225.960938 132.367188 225.882812 C 131.96875 225.804688 131.585938 225.6875 131.210938 225.535156 C 130.839844 225.378906 130.484375 225.191406 130.148438 224.964844 C 129.8125 224.742188 129.503906 224.484375 129.21875 224.199219 C 128.933594 223.914062 128.675781 223.605469 128.453125 223.269531 C 128.230469 222.933594 128.039062 222.578125 127.886719 222.207031 C 127.730469 221.832031 127.613281 221.449219 127.535156 221.050781 C 127.457031 220.65625 127.417969 220.257812 127.417969 219.851562 L 127.417969 166.0625 C 127.417969 165.65625 127.457031 165.257812 127.535156 164.859375 C 127.613281 164.464844 127.730469 164.082031 127.886719 163.707031 C 128.039062 163.335938 128.230469 162.980469 128.453125 162.644531 C 128.675781 162.308594 128.933594 162 129.21875 161.714844 C 129.503906 161.425781 129.8125 161.171875 130.148438 160.949219 C 130.484375 160.722656 130.839844 160.535156 131.210938 160.378906 C 131.585938 160.226562 131.96875 160.109375 132.367188 160.03125 C 132.761719 159.953125 133.160156 159.910156 133.566406 159.910156 Z M 133.566406 159.910156 " fill-opacity="1" fill-rule="nonzero"/><path fill="#23606b" d="M 184.375 159.910156 L 195.765625 159.910156 C 196.171875 159.910156 196.570312 159.953125 196.96875 160.03125 C 197.363281 160.109375 197.746094 160.226562 198.121094 160.378906 C 198.492188 160.535156 198.847656 160.722656 199.183594 160.949219 C 199.519531 161.171875 199.828125 161.425781 200.117188 161.714844 C 200.402344 162 200.65625 162.308594 200.878906 162.644531 C 201.105469 162.980469 201.292969 163.335938 201.449219 163.707031 C 201.601562 164.082031 201.71875 164.464844 201.796875 164.859375 C 201.875 165.257812 201.917969 165.65625 201.917969 166.0625 L 201.917969 219.851562 C 201.917969 220.257812 201.875 220.65625 201.796875 221.050781 C 201.71875 221.449219 201.601562 221.832031 201.449219 222.207031 C 201.292969 222.578125 201.105469 222.933594 200.878906 223.269531 C 200.65625 223.605469 200.402344 223.914062 200.117188 224.199219 C 199.828125 224.484375 199.519531 224.742188 199.183594 224.964844 C 198.847656 225.191406 198.492188 225.378906 198.121094 225.535156 C 197.746094 225.6875 197.363281 225.804688 196.96875 225.882812 C 196.570312 225.960938 196.171875 226 195.765625 226 L 184.375 226 C 183.972656 226 183.570312 225.960938 183.175781 225.882812 C 182.78125 225.804688 182.394531 225.6875 182.023438 225.535156 C 181.648438 225.378906 181.296875 225.191406 180.960938 224.964844 C 180.625 224.742188 180.3125 224.484375 180.027344 224.199219 C 179.742188 223.914062 179.488281 223.605469 179.261719 223.269531 C 179.039062 222.933594 178.847656 222.578125 178.695312 222.207031 C 178.539062 221.832031 178.421875 221.449219 178.34375 221.050781 C 178.265625 220.65625 178.226562 220.257812 178.226562 219.851562 L 178.226562 166.0625 C 178.226562 165.65625 178.265625 165.257812 178.34375 164.859375 C 178.421875 164.464844 178.539062 164.082031 178.695312 163.707031 C 178.847656 163.335938 179.039062 162.980469 179.261719 162.644531 C 179.488281 162.308594 179.742188 162 180.027344 161.714844 C 180.3125 161.425781 180.625 161.171875 180.960938 160.949219 C 181.296875 160.722656 181.648438 160.535156 182.023438 160.378906 C 182.394531 160.226562 182.78125 160.109375 183.175781 160.03125 C 183.570312 159.953125 183.972656 159.910156 184.375 159.910156 Z M 184.375 159.910156 " fill-opacity="1" fill-rule="nonzero"/><path fill="#23606b" d="M 230.3125 159.910156 L 241.703125 159.910156 C 242.109375 159.910156 242.507812 159.953125 242.902344 160.03125 C 243.300781 160.109375 243.683594 160.226562 244.058594 160.378906 C 244.429688 160.535156 244.785156 160.722656 245.121094 160.949219 C 245.457031 161.171875 245.765625 161.425781 246.050781 161.714844 C 246.335938 162 246.59375 162.308594 246.816406 162.644531 C 247.039062 162.980469 247.230469 163.335938 247.382812 163.707031 C 247.539062 164.082031 247.65625 164.464844 247.734375 164.859375 C 247.8125 165.257812 247.851562 165.65625 247.851562 166.0625 L 247.851562 219.851562 C 247.851562 220.257812 247.8125 220.65625 247.734375 221.050781 C 247.65625 221.449219 247.539062 221.832031 247.382812 222.207031 C 247.230469 222.578125 247.039062 222.933594 246.816406 223.269531 C 246.59375 223.605469 246.335938 223.914062 246.050781 224.199219 C 245.765625 224.484375 245.457031 224.742188 245.121094 224.964844 C 244.785156 225.191406 244.429688 225.378906 244.058594 225.535156 C 243.683594 225.6875 243.300781 225.804688 242.902344 225.882812 C 242.507812 225.960938 242.109375 226 241.703125 226 L 230.3125 226 C 229.910156 226 229.507812 225.960938 229.113281 225.882812 C 228.714844 225.804688 228.332031 225.6875 227.957031 225.535156 C 227.585938 225.378906 227.230469 225.191406 226.894531 224.964844 C 226.558594 224.742188 226.25 224.484375 225.964844 224.199219 C 225.679688 223.914062 225.421875 223.605469 225.199219 223.269531 C 224.976562 222.933594 224.785156 222.578125 224.632812 222.207031 C 224.476562 221.832031 224.359375 221.449219 224.28125 221.050781 C 224.203125 220.65625 224.164062 220.257812 224.164062 219.851562 L 224.164062 166.0625 C 224.164062 165.65625 224.203125 165.257812 224.28125 164.859375 C 224.359375 164.464844 224.476562 164.082031 224.632812 163.707031 C 224.785156 163.335938 224.976562 162.980469 225.199219 162.644531 C 225.421875 162.308594 225.679688 162 225.964844 161.714844 C 226.25 161.425781 226.558594 161.171875 226.894531 160.949219 C 227.230469 160.722656 227.585938 160.535156 227.957031 160.378906 C 228.332031 160.226562 228.714844 160.109375 229.113281 160.03125 C 229.507812 159.953125 229.910156 159.910156 230.3125 159.910156 Z M 230.3125 159.910156 " fill-opacity="1" fill-rule="nonzero"/><path fill="#23606b" d="M 127.03125 235 L 248.222656 235 C 248.832031 235 249.441406 235.058594 250.039062 235.179688 C 250.640625 235.300781 251.222656 235.476562 251.789062 235.710938 C 252.351562 235.945312 252.890625 236.230469 253.398438 236.570312 C 253.90625 236.910156 254.375 237.296875 254.808594 237.730469 C 255.242188 238.160156 255.628906 238.632812 255.96875 239.140625 C 256.308594 239.648438 256.59375 240.1875 256.828125 240.75 C 257.0625 241.316406 257.238281 241.898438 257.359375 242.5 C 257.476562 243.097656 257.539062 243.703125 257.539062 244.316406 L 257.539062 252.046875 C 257.539062 252.660156 257.476562 253.265625 257.359375 253.867188 C 257.238281 254.464844 257.0625 255.046875 256.828125 255.613281 C 256.59375 256.179688 256.308594 256.714844 255.96875 257.222656 C 255.628906 257.734375 255.242188 258.203125 254.808594 258.636719 C 254.375 259.070312 253.90625 259.453125 253.398438 259.792969 C 252.890625 260.132812 252.351562 260.421875 251.785156 260.65625 C 251.222656 260.890625 250.640625 261.066406 250.039062 261.183594 C 249.441406 261.304688 248.832031 261.363281 248.222656 261.363281 L 127.03125 261.363281 C 126.417969 261.363281 125.8125 261.304688 125.210938 261.183594 C 124.613281 261.066406 124.03125 260.890625 123.464844 260.65625 C 122.898438 260.421875 122.363281 260.132812 121.855469 259.792969 C 121.34375 259.453125 120.875 259.070312 120.441406 258.636719 C 120.011719 258.203125 119.625 257.734375 119.285156 257.222656 C 118.945312 256.714844 118.65625 256.179688 118.421875 255.613281 C 118.1875 255.046875 118.011719 254.464844 117.894531 253.867188 C 117.773438 253.265625 117.714844 252.660156 117.714844 252.046875 L 117.714844 244.316406 C 117.714844 243.703125 117.773438 243.097656 117.894531 242.5 C 118.011719 241.898438 118.1875 241.316406 118.421875 240.75 C 118.65625 240.1875 118.945312 239.648438 119.285156 239.140625 C 119.625 238.632812 120.011719 238.160156 120.441406 237.730469 C 120.875 237.296875 121.34375 236.910156 121.855469 236.570312 C 122.363281 236.230469 122.898438 235.945312 123.464844 235.710938 C 124.03125 235.476562 124.613281 235.300781 125.210938 235.179688 C 125.8125 235.058594 126.417969 235 127.03125 235 Z M 127.03125 235 " fill-opacity="1" fill-rule="nonzero"/></svg>