<svg xmlns="http://www.w3.org/2000/svg" xmlns:xlink="http://www.w3.org/1999/xlink" width="500" zoomAndPan="magnify" viewBox="0 0 375 374.999991" height="500" preserveAspectRatio="xMidYMid meet" version="1.0"><defs><clipPath id="50eabdf6ff"><path d="M 30.71875 30.71875 L 344.21875 30.71875 L 344.21875 344.21875 L 30.71875 344.21875 Z M 30.71875 30.71875 " clip-rule="nonzero"/></clipPath></defs><g clip-path="url(#50eabdf6ff)"><path fill="#5dcbce" d="M 187.46875 30.71875 C 184.902344 30.71875 182.339844 30.78125 179.777344 30.90625 C 177.214844 31.03125 174.65625 31.222656 172.105469 31.472656 C 169.550781 31.722656 167.003906 32.039062 164.46875 32.414062 C 161.929688 32.792969 159.402344 33.230469 156.886719 33.730469 C 154.371094 34.230469 151.871094 34.792969 149.382812 35.414062 C 146.890625 36.039062 144.421875 36.722656 141.964844 37.46875 C 139.511719 38.210938 137.074219 39.015625 134.660156 39.882812 C 132.246094 40.746094 129.851562 41.667969 127.484375 42.648438 C 125.113281 43.632812 122.769531 44.671875 120.449219 45.769531 C 118.128906 46.863281 115.839844 48.019531 113.578125 49.226562 C 111.3125 50.4375 109.082031 51.699219 106.882812 53.019531 C 104.683594 54.339844 102.515625 55.710938 100.382812 57.136719 C 98.25 58.558594 96.152344 60.039062 94.09375 61.566406 C 92.03125 63.09375 90.011719 64.671875 88.027344 66.296875 C 86.042969 67.925781 84.101562 69.601562 82.203125 71.324219 C 80.300781 73.046875 78.441406 74.816406 76.628906 76.628906 C 74.816406 78.441406 73.046875 80.300781 71.324219 82.203125 C 69.601562 84.101562 67.925781 86.042969 66.296875 88.027344 C 64.671875 90.011719 63.09375 92.03125 61.566406 94.09375 C 60.039062 96.152344 58.558594 98.25 57.136719 100.382812 C 55.710938 102.515625 54.339844 104.683594 53.019531 106.882812 C 51.699219 109.082031 50.4375 111.3125 49.226562 113.578125 C 48.019531 115.839844 46.863281 118.128906 45.769531 120.449219 C 44.671875 122.769531 43.632812 125.113281 42.648438 127.484375 C 41.667969 129.851562 40.746094 132.246094 39.882812 134.660156 C 39.015625 137.074219 38.210938 139.511719 37.46875 141.964844 C 36.722656 144.421875 36.039062 146.890625 35.414062 149.382812 C 34.792969 151.871094 34.230469 154.371094 33.730469 156.886719 C 33.230469 159.402344 32.792969 161.929688 32.414062 164.46875 C 32.039062 167.003906 31.722656 169.550781 31.472656 172.105469 C 31.222656 174.65625 31.03125 177.214844 30.90625 179.777344 C 30.78125 182.339844 30.71875 184.902344 30.71875 187.46875 C 30.71875 190.035156 30.78125 192.597656 30.90625 195.160156 C 31.03125 197.722656 31.222656 200.277344 31.472656 202.832031 C 31.722656 205.386719 32.039062 207.929688 32.414062 210.46875 C 32.792969 213.003906 33.230469 215.53125 33.730469 218.046875 C 34.230469 220.566406 34.792969 223.066406 35.414062 225.554688 C 36.039062 228.042969 36.722656 230.515625 37.46875 232.96875 C 38.210938 235.425781 39.015625 237.859375 39.882812 240.277344 C 40.746094 242.691406 41.667969 245.082031 42.648438 247.453125 C 43.632812 249.824219 44.671875 252.167969 45.769531 254.488281 C 46.863281 256.804688 48.019531 259.097656 49.226562 261.359375 C 50.4375 263.621094 51.699219 265.851562 53.019531 268.054688 C 54.339844 270.253906 55.710938 272.421875 57.136719 274.554688 C 58.558594 276.6875 60.039062 278.785156 61.566406 280.84375 C 63.09375 282.90625 64.671875 284.925781 66.296875 286.910156 C 67.925781 288.890625 69.601562 290.835938 71.324219 292.734375 C 73.046875 294.636719 74.816406 296.492188 76.628906 298.308594 C 78.441406 300.121094 80.300781 301.890625 82.203125 303.613281 C 84.101562 305.335938 86.042969 307.011719 88.027344 308.636719 C 90.011719 310.265625 92.03125 311.84375 94.09375 313.371094 C 96.152344 314.898438 98.25 316.375 100.382812 317.800781 C 102.515625 319.226562 104.683594 320.597656 106.882812 321.917969 C 109.082031 323.234375 111.3125 324.5 113.578125 325.710938 C 115.839844 326.917969 118.128906 328.070312 120.449219 329.167969 C 122.769531 330.265625 125.113281 331.304688 127.484375 332.285156 C 129.851562 333.269531 132.246094 334.191406 134.660156 335.054688 C 137.074219 335.917969 139.511719 336.722656 141.964844 337.46875 C 144.421875 338.214844 146.890625 338.898438 149.382812 339.519531 C 151.871094 340.144531 154.371094 340.707031 156.886719 341.207031 C 159.402344 341.707031 161.929688 342.144531 164.46875 342.523438 C 167.003906 342.898438 169.550781 343.210938 172.105469 343.464844 C 174.65625 343.714844 177.214844 343.902344 179.777344 344.027344 C 182.339844 344.15625 184.902344 344.21875 187.46875 344.21875 C 190.035156 344.21875 192.597656 344.15625 195.160156 344.027344 C 197.722656 343.902344 200.277344 343.714844 202.832031 343.464844 C 205.386719 343.210938 207.929688 342.898438 210.46875 342.523438 C 213.003906 342.144531 215.53125 341.707031 218.046875 341.207031 C 220.566406 340.707031 223.066406 340.144531 225.554688 339.519531 C 228.042969 338.898438 230.515625 338.214844 232.96875 337.46875 C 235.425781 336.722656 237.859375 335.917969 240.277344 335.054688 C 242.691406 334.191406 245.082031 333.269531 247.453125 332.285156 C 249.824219 331.304688 252.167969 330.265625 254.488281 329.167969 C 256.804688 328.070312 259.097656 326.917969 261.359375 325.710938 C 263.621094 324.5 265.851562 323.234375 268.054688 321.917969 C 270.253906 320.597656 272.421875 319.226562 274.554688 317.800781 C 276.6875 316.375 278.785156 314.898438 280.84375 313.371094 C 282.90625 311.84375 284.925781 310.265625 286.910156 308.636719 C 288.890625 307.011719 290.835938 305.335938 292.734375 303.613281 C 294.636719 301.890625 296.492188 300.121094 298.308594 298.308594 C 300.121094 296.492188 301.890625 294.636719 303.613281 292.734375 C 305.335938 290.835938 307.011719 288.890625 308.636719 286.910156 C 310.265625 284.925781 311.84375 282.90625 313.371094 280.84375 C 314.898438 278.785156 316.375 276.6875 317.800781 274.554688 C 319.226562 272.421875 320.597656 270.253906 321.917969 268.054688 C 323.234375 265.851562 324.5 263.621094 325.710938 261.359375 C 326.917969 259.097656 328.070312 256.804688 329.167969 254.488281 C 330.265625 252.167969 331.304688 249.824219 332.285156 247.453125 C 333.269531 245.082031 334.191406 242.691406 335.054688 240.277344 C 335.917969 237.859375 336.722656 235.425781 337.46875 232.96875 C 338.214844 230.515625 338.898438 228.042969 339.519531 225.554688 C 340.144531 223.066406 340.707031 220.566406 341.207031 218.046875 C 341.707031 215.53125 342.144531 213.003906 342.523438 210.46875 C 342.898438 207.929688 343.210938 205.386719 343.464844 202.832031 C 343.714844 200.277344 343.902344 197.722656 344.027344 195.160156 C 344.15625 192.597656 344.21875 190.035156 344.21875 187.46875 C 344.21875 184.902344 344.152344 182.339844 344.027344 179.777344 C 343.898438 177.214844 343.707031 174.660156 343.457031 172.105469 C 343.203125 169.554688 342.890625 167.007812 342.511719 164.472656 C 342.132812 161.933594 341.695312 159.410156 341.195312 156.894531 C 340.691406 154.378906 340.128906 151.875 339.503906 149.386719 C 338.882812 146.898438 338.195312 144.429688 337.453125 141.972656 C 336.707031 139.519531 335.902344 137.085938 335.035156 134.671875 C 334.171875 132.253906 333.25 129.863281 332.265625 127.496094 C 331.285156 125.125 330.246094 122.78125 329.148438 120.460938 C 328.050781 118.144531 326.898438 115.851562 325.6875 113.589844 C 324.476562 111.328125 323.214844 109.097656 321.894531 106.898438 C 320.574219 104.699219 319.203125 102.53125 317.777344 100.398438 C 316.351562 98.269531 314.875 96.171875 313.347656 94.113281 C 311.820312 92.050781 310.242188 90.03125 308.613281 88.046875 C 306.988281 86.066406 305.3125 84.121094 303.589844 82.222656 C 301.867188 80.320312 300.097656 78.464844 298.285156 76.652344 C 296.472656 74.835938 294.613281 73.070312 292.714844 71.347656 C 290.8125 69.625 288.871094 67.949219 286.890625 66.320312 C 284.90625 64.695312 282.886719 63.117188 280.824219 61.589844 C 278.765625 60.058594 276.667969 58.582031 274.535156 57.160156 C 272.402344 55.734375 270.238281 54.359375 268.039062 53.042969 C 265.835938 51.722656 263.605469 50.457031 261.34375 49.25 C 259.082031 48.039062 256.792969 46.886719 254.472656 45.789062 C 252.15625 44.691406 249.8125 43.652344 247.441406 42.671875 C 245.074219 41.6875 242.679688 40.765625 240.265625 39.898438 C 237.851562 39.035156 235.417969 38.230469 232.960938 37.484375 C 230.507812 36.738281 228.035156 36.054688 225.546875 35.429688 C 223.058594 34.804688 220.558594 34.242188 218.042969 33.742188 C 215.527344 33.242188 213 32.800781 210.464844 32.425781 C 207.925781 32.046875 205.382812 31.730469 202.828125 31.480469 C 200.277344 31.226562 197.71875 31.039062 195.160156 30.910156 C 192.597656 30.785156 190.03125 30.71875 187.46875 30.71875 Z M 249.832031 249.757812 C 248.808594 250.109375 247.769531 250.394531 246.710938 250.609375 C 245.648438 250.828125 244.582031 250.976562 243.503906 251.058594 C 242.421875 251.136719 241.34375 251.148438 240.265625 251.089844 C 239.183594 251.03125 238.113281 250.90625 237.046875 250.707031 C 235.984375 250.511719 234.9375 250.25 233.910156 249.917969 C 232.878906 249.585938 231.875 249.191406 230.894531 248.734375 C 229.917969 248.273438 228.96875 247.753906 228.058594 247.171875 C 227.144531 246.589844 226.273438 245.953125 225.445312 245.261719 L 225.335938 245.171875 C 217.84375 238.730469 209.863281 232.964844 201.390625 227.878906 C 197.164062 225.042969 192.519531 223.316406 187.46875 222.699219 C 182.417969 223.324219 177.78125 225.054688 173.554688 227.886719 C 165.078125 232.980469 157.066406 238.714844 149.511719 245.097656 L 149.449219 245.097656 C 147.785156 246.484375 145.976562 247.636719 144.019531 248.554688 C 142.058594 249.476562 140.015625 250.128906 137.890625 250.523438 C 135.761719 250.914062 133.621094 251.03125 131.460938 250.871094 C 129.304688 250.707031 127.203125 250.277344 125.15625 249.574219 C 123.671875 248.941406 122.210938 248.25 120.777344 247.507812 C 119.347656 246.761719 117.941406 245.964844 116.570312 245.113281 C 115.199219 244.261719 113.859375 243.359375 112.554688 242.40625 C 111.253906 241.453125 109.988281 240.453125 108.757812 239.402344 C 107.53125 238.351562 106.347656 237.257812 105.203125 236.117188 C 104.058594 234.980469 102.957031 233.796875 101.902344 232.574219 C 100.851562 231.351562 99.84375 230.089844 98.886719 228.789062 C 97.925781 227.488281 97.019531 226.152344 96.164062 224.785156 C 95.308594 223.414062 94.503906 222.015625 93.753906 220.585938 C 93.003906 219.15625 92.308594 217.699219 91.667969 216.214844 C 91.03125 214.730469 90.449219 213.226562 89.925781 211.699219 C 89.398438 210.171875 88.933594 208.625 88.527344 207.0625 C 88.121094 205.5 87.773438 203.925781 87.488281 202.335938 C 87.199219 200.746094 86.972656 199.148438 86.808594 197.539062 C 86.644531 195.933594 86.539062 194.324219 86.496094 192.710938 C 86.453125 191.09375 86.472656 189.480469 86.554688 187.867188 C 86.554688 152.195312 110.703125 123.742188 139.707031 123.742188 L 235.226562 123.742188 C 264.230469 123.742188 288.382812 152.203125 288.382812 187.867188 C 288.460938 189.484375 288.480469 191.097656 288.4375 192.714844 C 288.394531 194.332031 288.289062 195.945312 288.125 197.550781 C 287.957031 199.160156 287.730469 200.761719 287.445312 202.351562 C 287.160156 203.945312 286.8125 205.523438 286.40625 207.085938 C 286 208.652344 285.535156 210.199219 285.011719 211.730469 C 284.488281 213.257812 283.90625 214.765625 283.269531 216.253906 C 282.628906 217.738281 281.9375 219.199219 281.1875 220.632812 C 280.441406 222.0625 279.636719 223.46875 278.785156 224.839844 C 277.929688 226.210938 277.023438 227.550781 276.066406 228.855469 C 275.109375 230.15625 274.105469 231.421875 273.054688 232.652344 C 272 233.878906 270.902344 235.066406 269.761719 236.210938 C 268.621094 237.355469 267.4375 238.453125 266.210938 239.507812 C 264.984375 240.5625 263.722656 241.570312 262.417969 242.53125 C 261.117188 243.488281 259.78125 244.398438 258.410156 245.253906 C 257.039062 246.113281 255.640625 246.917969 254.207031 247.667969 C 252.777344 248.421875 251.316406 249.117188 249.832031 249.757812 Z M 249.832031 249.757812 " fill-opacity="1" fill-rule="evenodd"/></g><path fill="#5dcbce" d="M 235.226562 134.605469 L 139.707031 134.605469 C 116 134.605469 97.363281 158.765625 97.363281 187.921875 C 97.28125 189.257812 97.253906 190.59375 97.273438 191.929688 C 97.292969 193.265625 97.363281 194.601562 97.488281 195.933594 C 97.609375 197.261719 97.78125 198.589844 98.003906 199.90625 C 98.226562 201.226562 98.5 202.535156 98.820312 203.832031 C 99.140625 205.128906 99.511719 206.414062 99.933594 207.683594 C 100.351562 208.953125 100.820312 210.203125 101.332031 211.4375 C 101.847656 212.671875 102.410156 213.882812 103.015625 215.074219 C 103.621094 216.265625 104.273438 217.433594 104.96875 218.574219 C 105.664062 219.71875 106.402344 220.832031 107.183594 221.917969 C 107.960938 223.003906 108.78125 224.058594 109.644531 225.082031 C 110.503906 226.105469 111.402344 227.09375 112.335938 228.050781 C 113.273438 229.003906 114.242188 229.925781 115.246094 230.804688 C 116.253906 231.6875 117.289062 232.53125 118.359375 233.332031 C 119.429688 234.136719 120.527344 234.898438 121.652344 235.617188 C 122.78125 236.335938 123.933594 237.011719 125.113281 237.640625 C 126.289062 238.273438 127.492188 238.859375 128.714844 239.402344 C 129.898438 239.796875 131.113281 240.035156 132.359375 240.117188 C 133.605469 240.199219 134.839844 240.125 136.066406 239.886719 C 137.292969 239.652344 138.46875 239.265625 139.59375 238.726562 C 140.71875 238.1875 141.761719 237.515625 142.714844 236.710938 C 150.738281 229.949219 159.246094 223.875 168.246094 218.484375 C 171.140625 216.628906 174.210938 215.148438 177.460938 214.03125 C 180.710938 212.917969 184.046875 212.203125 187.46875 211.886719 C 190.894531 212.203125 194.238281 212.917969 197.492188 214.035156 C 200.75 215.15625 203.824219 216.644531 206.722656 218.503906 C 215.75 223.910156 224.261719 230.035156 232.253906 236.882812 C 233.214844 237.6875 234.261719 238.355469 235.390625 238.894531 C 236.523438 239.429688 237.703125 239.8125 238.933594 240.046875 C 240.164062 240.28125 241.40625 240.351562 242.652344 240.269531 C 243.902344 240.183594 245.121094 239.941406 246.308594 239.542969 C 247.53125 238.996094 248.730469 238.402344 249.910156 237.765625 C 251.085938 237.128906 252.238281 236.449219 253.363281 235.722656 C 254.488281 235 255.585938 234.234375 256.65625 233.425781 C 257.722656 232.621094 258.761719 231.773438 259.765625 230.886719 C 260.769531 230.003906 261.738281 229.078125 262.671875 228.121094 C 263.605469 227.164062 264.503906 226.167969 265.363281 225.144531 C 266.222656 224.117188 267.042969 223.058594 267.820312 221.96875 C 268.601562 220.882812 269.335938 219.765625 270.03125 218.621094 C 270.726562 217.476562 271.378906 216.308594 271.984375 215.113281 C 272.59375 213.917969 273.152344 212.703125 273.667969 211.46875 C 274.183594 210.234375 274.648438 208.980469 275.070312 207.707031 C 275.488281 206.4375 275.859375 205.152344 276.183594 203.851562 C 276.507812 202.550781 276.78125 201.242188 277.003906 199.921875 C 277.226562 198.601562 277.402344 197.277344 277.523438 195.941406 C 277.648438 194.609375 277.722656 193.273438 277.742188 191.933594 C 277.765625 190.597656 277.738281 189.257812 277.660156 187.921875 C 277.574219 158.765625 258.933594 134.605469 235.226562 134.605469 Z M 155.6875 186.992188 L 145.199219 186.992188 L 145.199219 197.476562 C 145.199219 197.832031 145.164062 198.183594 145.097656 198.53125 C 145.027344 198.882812 144.925781 199.21875 144.789062 199.546875 C 144.652344 199.875 144.484375 200.1875 144.289062 200.480469 C 144.089844 200.777344 143.867188 201.050781 143.617188 201.300781 C 143.367188 201.550781 143.09375 201.777344 142.796875 201.972656 C 142.503906 202.167969 142.191406 202.335938 141.863281 202.472656 C 141.535156 202.609375 141.195312 202.710938 140.847656 202.78125 C 140.5 202.847656 140.148438 202.882812 139.792969 202.882812 C 139.441406 202.882812 139.089844 202.847656 138.738281 202.78125 C 138.390625 202.710938 138.054688 202.609375 137.726562 202.472656 C 137.398438 202.335938 137.085938 202.167969 136.792969 201.972656 C 136.496094 201.777344 136.222656 201.550781 135.972656 201.300781 C 135.722656 201.050781 135.496094 200.777344 135.300781 200.480469 C 135.101562 200.1875 134.9375 199.875 134.800781 199.546875 C 134.664062 199.21875 134.5625 198.882812 134.492188 198.53125 C 134.425781 198.183594 134.390625 197.832031 134.390625 197.476562 L 134.390625 186.992188 L 123.902344 186.992188 C 123.546875 186.992188 123.195312 186.957031 122.847656 186.886719 C 122.5 186.820312 122.164062 186.714844 121.835938 186.582031 C 121.507812 186.445312 121.195312 186.277344 120.898438 186.082031 C 120.605469 185.882812 120.332031 185.660156 120.082031 185.410156 C 119.832031 185.160156 119.605469 184.886719 119.410156 184.589844 C 119.210938 184.296875 119.046875 183.984375 118.910156 183.65625 C 118.773438 183.328125 118.671875 182.988281 118.601562 182.640625 C 118.53125 182.292969 118.5 181.941406 118.5 181.585938 C 118.5 181.230469 118.53125 180.878906 118.601562 180.53125 C 118.671875 180.183594 118.773438 179.847656 118.910156 179.519531 C 119.046875 179.191406 119.210938 178.878906 119.410156 178.585938 C 119.605469 178.289062 119.832031 178.015625 120.082031 177.765625 C 120.332031 177.515625 120.605469 177.289062 120.898438 177.09375 C 121.195312 176.894531 121.507812 176.730469 121.835938 176.59375 C 122.164062 176.457031 122.5 176.355469 122.847656 176.285156 C 123.195312 176.214844 123.546875 176.183594 123.902344 176.183594 L 134.390625 176.183594 L 134.390625 165.695312 C 134.390625 165.339844 134.425781 164.988281 134.492188 164.640625 C 134.5625 164.292969 134.664062 163.957031 134.800781 163.628906 C 134.9375 163.300781 135.101562 162.988281 135.300781 162.691406 C 135.496094 162.398438 135.722656 162.125 135.972656 161.875 C 136.222656 161.621094 136.496094 161.398438 136.792969 161.203125 C 137.085938 161.003906 137.398438 160.839844 137.726562 160.703125 C 138.054688 160.566406 138.390625 160.464844 138.738281 160.394531 C 139.089844 160.324219 139.441406 160.289062 139.792969 160.289062 C 140.148438 160.289062 140.5 160.324219 140.847656 160.394531 C 141.195312 160.464844 141.535156 160.566406 141.863281 160.703125 C 142.191406 160.839844 142.503906 161.003906 142.796875 161.203125 C 143.09375 161.398438 143.367188 161.621094 143.617188 161.875 C 143.867188 162.125 144.089844 162.398438 144.289062 162.691406 C 144.484375 162.988281 144.652344 163.300781 144.789062 163.628906 C 144.925781 163.957031 145.027344 164.292969 145.097656 164.640625 C 145.164062 164.988281 145.199219 165.339844 145.199219 165.695312 L 145.199219 176.183594 L 155.6875 176.183594 C 156.039062 176.183594 156.390625 176.214844 156.738281 176.285156 C 157.089844 176.355469 157.425781 176.457031 157.753906 176.59375 C 158.082031 176.730469 158.394531 176.894531 158.6875 177.09375 C 158.984375 177.289062 159.257812 177.515625 159.507812 177.765625 C 159.757812 178.015625 159.984375 178.289062 160.179688 178.585938 C 160.378906 178.878906 160.542969 179.191406 160.679688 179.519531 C 160.816406 179.847656 160.917969 180.183594 160.988281 180.53125 C 161.054688 180.878906 161.089844 181.230469 161.089844 181.585938 C 161.089844 181.941406 161.054688 182.292969 160.988281 182.640625 C 160.917969 182.988281 160.816406 183.328125 160.679688 183.65625 C 160.542969 183.984375 160.378906 184.296875 160.179688 184.589844 C 159.984375 184.886719 159.757812 185.160156 159.507812 185.410156 C 159.257812 185.660156 158.984375 185.882812 158.6875 186.082031 C 158.394531 186.277344 158.082031 186.445312 157.753906 186.582031 C 157.425781 186.714844 157.089844 186.820312 156.738281 186.886719 C 156.390625 186.957031 156.039062 186.992188 155.6875 186.992188 Z M 236.902344 201.121094 C 236.265625 201.121094 235.625 201.089844 234.988281 201.027344 C 234.351562 200.964844 233.71875 200.871094 233.09375 200.746094 C 232.464844 200.621094 231.84375 200.464844 231.234375 200.28125 C 230.621094 200.09375 230.019531 199.878906 229.429688 199.632812 C 228.835938 199.390625 228.257812 199.117188 227.695312 198.816406 C 227.132812 198.511719 226.582031 198.183594 226.050781 197.828125 C 225.519531 197.472656 225.007812 197.09375 224.511719 196.6875 C 224.015625 196.28125 223.542969 195.851562 223.089844 195.398438 C 222.636719 194.949219 222.210938 194.472656 221.804688 193.980469 C 221.398438 193.484375 221.015625 192.972656 220.660156 192.441406 C 220.304688 191.90625 219.976562 191.359375 219.675781 190.796875 C 219.375 190.230469 219.101562 189.652344 218.855469 189.0625 C 218.613281 188.472656 218.394531 187.871094 218.210938 187.257812 C 218.023438 186.644531 217.871094 186.027344 217.746094 185.398438 C 217.621094 184.769531 217.527344 184.136719 217.464844 183.5 C 217.402344 182.867188 217.371094 182.226562 217.371094 181.585938 C 217.371094 180.949219 217.402344 180.308594 217.464844 179.671875 C 217.527344 179.035156 217.621094 178.402344 217.746094 177.777344 C 217.871094 177.148438 218.023438 176.527344 218.210938 175.917969 C 218.394531 175.304688 218.613281 174.703125 218.855469 174.113281 C 219.101562 173.519531 219.375 172.941406 219.675781 172.378906 C 219.976562 171.816406 220.304688 171.265625 220.660156 170.734375 C 221.015625 170.203125 221.398438 169.6875 221.804688 169.195312 C 222.210938 168.699219 222.636719 168.226562 223.089844 167.773438 C 223.542969 167.320312 224.015625 166.894531 224.511719 166.488281 C 225.007812 166.082031 225.519531 165.699219 226.050781 165.34375 C 226.582031 164.988281 227.132812 164.660156 227.695312 164.359375 C 228.257812 164.058594 228.835938 163.785156 229.429688 163.539062 C 230.019531 163.296875 230.621094 163.078125 231.234375 162.894531 C 231.84375 162.707031 232.464844 162.554688 233.09375 162.429688 C 233.71875 162.304688 234.351562 162.210938 234.988281 162.148438 C 235.625 162.085938 236.265625 162.054688 236.902344 162.054688 C 237.542969 162.054688 238.183594 162.085938 238.820312 162.148438 C 239.457031 162.210938 240.085938 162.304688 240.714844 162.429688 C 241.34375 162.554688 241.960938 162.707031 242.574219 162.894531 C 243.1875 163.078125 243.789062 163.296875 244.378906 163.539062 C 244.96875 163.785156 245.546875 164.058594 246.113281 164.359375 C 246.675781 164.660156 247.222656 164.988281 247.757812 165.34375 C 248.289062 165.699219 248.800781 166.082031 249.296875 166.488281 C 249.789062 166.894531 250.265625 167.320312 250.714844 167.773438 C 251.167969 168.226562 251.597656 168.699219 252.003906 169.195312 C 252.410156 169.6875 252.789062 170.203125 253.144531 170.734375 C 253.5 171.265625 253.828125 171.816406 254.132812 172.378906 C 254.433594 172.941406 254.707031 173.519531 254.949219 174.113281 C 255.195312 174.703125 255.410156 175.304688 255.597656 175.917969 C 255.78125 176.527344 255.9375 177.148438 256.0625 177.777344 C 256.1875 178.402344 256.28125 179.035156 256.34375 179.671875 C 256.40625 180.308594 256.4375 180.949219 256.4375 181.585938 C 256.4375 182.226562 256.40625 182.867188 256.34375 183.5 C 256.28125 184.136719 256.1875 184.769531 256.0625 185.398438 C 255.9375 186.027344 255.78125 186.644531 255.597656 187.257812 C 255.410156 187.871094 255.195312 188.472656 254.949219 189.0625 C 254.707031 189.652344 254.433594 190.230469 254.132812 190.796875 C 253.828125 191.359375 253.5 191.90625 253.144531 192.441406 C 252.789062 192.972656 252.410156 193.484375 252.003906 193.980469 C 251.597656 194.472656 251.167969 194.949219 250.714844 195.398438 C 250.265625 195.851562 249.789062 196.28125 249.296875 196.6875 C 248.800781 197.09375 248.289062 197.472656 247.757812 197.828125 C 247.222656 198.183594 246.675781 198.511719 246.113281 198.816406 C 245.546875 199.117188 244.96875 199.390625 244.378906 199.632812 C 243.789062 199.878906 243.1875 200.09375 242.574219 200.28125 C 241.960938 200.464844 241.34375 200.621094 240.714844 200.746094 C 240.085938 200.871094 239.457031 200.964844 238.820312 201.027344 C 238.183594 201.089844 237.542969 201.121094 236.902344 201.121094 Z M 236.902344 201.121094 " fill-opacity="1" fill-rule="evenodd"/><path fill="#5dcbce" d="M 245.628906 181.585938 C 245.628906 182.160156 245.570312 182.726562 245.460938 183.289062 C 245.347656 183.851562 245.183594 184.398438 244.964844 184.925781 C 244.746094 185.453125 244.476562 185.957031 244.15625 186.433594 C 243.839844 186.910156 243.476562 187.351562 243.074219 187.757812 C 242.667969 188.160156 242.226562 188.523438 241.75 188.839844 C 241.273438 189.160156 240.773438 189.429688 240.242188 189.648438 C 239.714844 189.867188 239.167969 190.03125 238.605469 190.144531 C 238.042969 190.253906 237.476562 190.3125 236.902344 190.3125 C 236.332031 190.3125 235.761719 190.253906 235.203125 190.144531 C 234.640625 190.03125 234.09375 189.867188 233.566406 189.648438 C 233.035156 189.429688 232.535156 189.160156 232.058594 188.839844 C 231.582031 188.523438 231.140625 188.160156 230.734375 187.757812 C 230.328125 187.351562 229.96875 186.910156 229.648438 186.433594 C 229.332031 185.957031 229.0625 185.453125 228.84375 184.925781 C 228.625 184.398438 228.460938 183.851562 228.347656 183.289062 C 228.234375 182.726562 228.179688 182.160156 228.179688 181.585938 C 228.179688 181.015625 228.234375 180.445312 228.347656 179.886719 C 228.460938 179.324219 228.625 178.777344 228.84375 178.25 C 229.0625 177.71875 229.332031 177.214844 229.648438 176.742188 C 229.96875 176.265625 230.328125 175.824219 230.734375 175.417969 C 231.140625 175.011719 231.582031 174.652344 232.058594 174.332031 C 232.535156 174.015625 233.035156 173.746094 233.566406 173.527344 C 234.09375 173.308594 234.640625 173.144531 235.203125 173.03125 C 235.761719 172.917969 236.332031 172.863281 236.902344 172.863281 C 237.476562 172.863281 238.042969 172.917969 238.605469 173.03125 C 239.167969 173.144531 239.714844 173.308594 240.242188 173.527344 C 240.773438 173.746094 241.273438 174.015625 241.75 174.332031 C 242.226562 174.652344 242.667969 175.011719 243.074219 175.417969 C 243.476562 175.824219 243.839844 176.265625 244.15625 176.742188 C 244.476562 177.214844 244.746094 177.71875 244.964844 178.25 C 245.183594 178.777344 245.347656 179.324219 245.460938 179.886719 C 245.570312 180.445312 245.628906 181.015625 245.628906 181.585938 Z M 245.628906 181.585938 " fill-opacity="1" fill-rule="nonzero"/></svg>