<svg xmlns="http://www.w3.org/2000/svg" xmlns:xlink="http://www.w3.org/1999/xlink" width="500" zoomAndPan="magnify" viewBox="0 0 375 374.999991" height="500" preserveAspectRatio="xMidYMid meet" version="1.0"><defs><clipPath id="91e0af92bb"><path d="M 34.019531 44 L 340.769531 44 L 340.769531 331 L 34.019531 331 Z M 34.019531 44 " clip-rule="nonzero"/></clipPath></defs><g clip-path="url(#91e0af92bb)"><path fill="#dafdfe" d="M 338.660156 115.59375 L 315.484375 91.746094 C 314.976562 91.234375 314.394531 90.835938 313.730469 90.550781 C 313.070312 90.269531 312.378906 90.121094 311.660156 90.109375 L 300.375 90.195312 L 234.058594 49.160156 C 231.300781 47.761719 228.394531 46.84375 225.335938 46.410156 C 222.257812 45.976562 219.164062 45.757812 216.058594 45.753906 L 147.734375 44.730469 C 146.046875 44.746094 144.390625 44.972656 142.761719 45.421875 C 139.78125 46.320312 137.246094 47.925781 135.160156 50.234375 C 134.15625 51.363281 133.316406 52.601562 132.632812 53.945312 C 131.503906 56.203125 130.917969 58.589844 130.871094 61.113281 C 130.84375 62.933594 131.113281 64.707031 131.671875 66.4375 C 132.234375 68.164062 133.058594 69.757812 134.144531 71.214844 C 133.894531 71.597656 133.660156 72.003906 133.425781 72.449219 C 132.171875 74.8125 131.546875 77.328125 131.542969 80.003906 L 131.542969 80.464844 C 131.574219 82.394531 131.929688 84.265625 132.609375 86.070312 C 133.289062 87.878906 134.257812 89.515625 135.511719 90.984375 L 136.242188 91.828125 C 137.777344 93.414062 139.554688 94.644531 141.582031 95.523438 C 143.605469 96.398438 145.71875 96.855469 147.925781 96.890625 L 198.3125 97.628906 L 243.417969 144.019531 L 243.582031 144.246094 C 245.125 146.097656 246.988281 147.535156 249.167969 148.558594 C 251.230469 149.570312 253.414062 150.109375 255.710938 150.171875 L 307.609375 150.964844 L 307.679688 150.964844 C 308.378906 150.972656 309.054688 150.84375 309.703125 150.578125 C 310.347656 150.3125 310.917969 149.929688 311.410156 149.433594 L 338.21875 123.402344 L 338.539062 123.136719 C 338.789062 122.890625 339.011719 122.625 339.207031 122.335938 C 339.402344 122.046875 339.570312 121.742188 339.707031 121.421875 C 339.84375 121.097656 339.949219 120.769531 340.023438 120.425781 C 340.097656 120.085938 340.136719 119.738281 340.140625 119.390625 C 340.148438 119.042969 340.117188 118.695312 340.058594 118.351562 C 339.996094 118.007812 339.902344 117.671875 339.773438 117.347656 C 339.648438 117.023438 339.488281 116.710938 339.304688 116.417969 C 339.117188 116.121094 338.902344 115.847656 338.660156 115.59375 Z M 202.574219 84.285156 C 202.582031 82.816406 203.058594 81.515625 204 80.390625 L 204.382812 80.054688 C 204.9375 79.511719 205.574219 79.09375 206.292969 78.804688 C 207.015625 78.511719 207.761719 78.371094 208.539062 78.375 L 208.679688 78.375 C 209.46875 78.378906 210.226562 78.539062 210.949219 78.847656 C 211.675781 79.160156 212.3125 79.597656 212.863281 80.164062 L 245.511719 113.847656 C 245.753906 114.101562 246.019531 114.324219 246.308594 114.523438 C 246.597656 114.722656 246.902344 114.894531 247.222656 115.03125 C 247.542969 115.171875 247.875 115.277344 248.21875 115.351562 C 248.558594 115.425781 248.90625 115.464844 249.253906 115.46875 C 249.605469 115.472656 249.953125 115.445312 250.296875 115.382812 C 250.640625 115.320312 250.976562 115.222656 251.300781 115.09375 C 251.625 114.964844 251.9375 114.804688 252.230469 114.613281 C 252.523438 114.425781 252.796875 114.207031 253.046875 113.964844 C 253.296875 113.71875 253.523438 113.453125 253.722656 113.167969 C 253.921875 112.878906 254.089844 112.574219 254.226562 112.253906 C 254.367188 111.929688 254.472656 111.597656 254.546875 111.257812 C 254.621094 110.914062 254.660156 110.566406 254.664062 110.21875 C 254.671875 109.867188 254.640625 109.519531 254.578125 109.175781 C 254.515625 108.832031 254.417969 108.496094 254.289062 108.171875 C 254.160156 107.84375 254 107.535156 253.8125 107.242188 C 253.621094 106.949219 253.40625 106.675781 253.160156 106.421875 L 220.507812 72.738281 C 218.976562 71.164062 217.199219 69.9375 215.175781 69.070312 C 213.15625 68.199219 211.046875 67.75 208.847656 67.71875 C 207.429688 67.695312 206.035156 67.871094 204.667969 68.253906 L 147.382812 67.375 C 146.589844 67.371094 145.832031 67.210938 145.101562 66.894531 C 144.375 66.578125 143.738281 66.132812 143.195312 65.558594 L 142.980469 65.339844 C 142.484375 64.785156 142.109375 64.160156 141.855469 63.460938 C 141.597656 62.761719 141.480469 62.042969 141.496094 61.296875 C 141.515625 59.785156 142.027344 58.460938 143.027344 57.324219 L 143.308594 57.046875 C 143.878906 56.492188 144.535156 56.070312 145.273438 55.777344 C 146.011719 55.480469 146.777344 55.339844 147.570312 55.347656 L 216.011719 56.386719 C 218.589844 56.359375 221.152344 56.535156 223.703125 56.917969 C 225.457031 57.121094 227.128906 57.601562 228.726562 58.359375 L 296.019531 99.992188 C 296.941406 100.589844 297.949219 100.859375 299.046875 100.800781 L 309.425781 100.75 L 327.308594 119.175781 L 305.582031 140.28125 L 256.03125 139.558594 C 255.214844 139.53125 254.4375 139.34375 253.695312 139.003906 C 252.875 138.589844 252.167969 138.023438 251.582031 137.308594 L 204.253906 88.519531 C 203.207031 87.445312 202.644531 86.15625 202.566406 84.660156 Z M 192.160156 86.898438 L 148.089844 86.257812 C 147.289062 86.238281 146.523438 86.066406 145.789062 85.746094 C 145.058594 85.421875 144.414062 84.972656 143.855469 84.394531 L 143.644531 84.179688 C 142.625 83.035156 142.121094 81.699219 142.136719 80.164062 C 142.152344 79.210938 142.355469 78.296875 142.753906 77.429688 L 142.8125 77.332031 C 144.253906 77.75 145.726562 77.972656 147.230469 78.011719 L 192.9375 78.707031 C 191.964844 81.371094 191.710938 84.101562 192.171875 86.898438 Z M 186.886719 232.753906 C 188.371094 232.75 189.855469 232.675781 191.332031 232.527344 C 192.8125 232.378906 194.28125 232.160156 195.738281 231.867188 C 197.195312 231.574219 198.636719 231.214844 200.058594 230.78125 C 201.480469 230.351562 202.878906 229.851562 204.25 229.28125 C 205.625 228.714844 206.96875 228.078125 208.277344 227.378906 C 209.589844 226.679688 210.867188 225.917969 212.101562 225.097656 C 213.339844 224.273438 214.535156 223.390625 215.6875 222.449219 C 216.839844 221.511719 217.941406 220.515625 219 219.46875 C 220.054688 218.421875 221.054688 217.324219 222.003906 216.179688 C 222.953125 215.035156 223.84375 213.847656 224.675781 212.613281 C 225.507812 211.382812 226.277344 210.113281 226.988281 208.804688 C 227.695312 207.496094 228.339844 206.160156 228.917969 204.789062 C 229.496094 203.417969 230.007812 202.023438 230.449219 200.605469 C 230.894531 199.183594 231.265625 197.746094 231.570312 196.289062 C 231.871094 194.832031 232.105469 193.367188 232.265625 191.886719 C 232.421875 190.410156 232.511719 188.925781 232.527344 187.4375 C 232.539062 185.941406 232.476562 184.449219 232.339844 182.960938 C 232.207031 181.472656 232 179.992188 231.71875 178.523438 C 231.4375 177.054688 231.085938 175.605469 230.664062 174.167969 C 230.242188 172.734375 229.75 171.324219 229.1875 169.9375 C 228.628906 168.554688 228 167.199219 227.304688 165.875 C 226.613281 164.550781 225.855469 163.261719 225.035156 162.011719 C 224.214844 160.761719 223.335938 159.554688 222.398438 158.390625 C 221.457031 157.226562 220.464844 156.113281 219.417969 155.046875 C 218.367188 153.980469 217.269531 152.96875 216.125 152.011719 C 214.976562 151.054688 213.785156 150.15625 212.550781 149.3125 C 211.3125 148.472656 210.039062 147.695312 208.730469 146.976562 C 207.417969 146.261719 206.074219 145.613281 204.695312 145.027344 C 203.320312 144.445312 201.921875 143.929688 200.496094 143.484375 C 199.066406 143.039062 197.625 142.664062 196.160156 142.359375 C 194.699219 142.054688 193.222656 141.824219 191.738281 141.664062 C 190.25 141.503906 188.761719 141.417969 187.269531 141.40625 L 186.863281 141.40625 C 185.367188 141.398438 183.875 141.46875 182.386719 141.609375 C 180.898438 141.75 179.421875 141.964844 177.957031 142.25 C 176.488281 142.539062 175.039062 142.894531 173.609375 143.324219 C 172.175781 143.753906 170.769531 144.253906 169.386719 144.820312 C 168.003906 145.386719 166.652344 146.019531 165.328125 146.722656 C 164.007812 147.421875 162.726562 148.1875 161.480469 149.011719 C 160.234375 149.839844 159.03125 150.726562 157.875 151.667969 C 156.714844 152.613281 155.605469 153.613281 154.542969 154.667969 C 153.484375 155.722656 152.476562 156.824219 151.523438 157.976562 C 150.570312 159.132812 149.679688 160.328125 148.84375 161.570312 C 148.007812 162.808594 147.238281 164.089844 146.527344 165.40625 C 145.816406 166.722656 145.175781 168.070312 144.597656 169.449219 C 144.019531 170.828125 143.511719 172.234375 143.074219 173.664062 C 142.636719 175.09375 142.269531 176.542969 141.972656 178.007812 C 141.675781 179.472656 141.449219 180.953125 141.296875 182.441406 C 141.144531 183.929688 141.066406 185.417969 141.0625 186.914062 C 141.058594 188.410156 141.125 189.902344 141.265625 191.394531 C 141.40625 192.882812 141.621094 194.359375 141.90625 195.828125 C 142.195312 197.296875 142.550781 198.746094 142.980469 200.179688 C 143.410156 201.613281 143.90625 203.023438 144.472656 204.40625 C 145.039062 205.789062 145.675781 207.144531 146.375 208.464844 C 147.074219 209.785156 147.835938 211.070312 148.664062 212.316406 C 149.488281 213.5625 150.375 214.765625 151.316406 215.925781 C 152.261719 217.085938 153.261719 218.195312 154.3125 219.257812 C 155.367188 220.320312 156.46875 221.328125 157.621094 222.28125 C 158.773438 223.234375 159.96875 224.128906 161.210938 224.964844 C 162.449219 225.800781 163.726562 226.570312 165.042969 227.28125 C 166.359375 227.992188 167.707031 228.636719 169.085938 229.210938 C 170.464844 229.789062 171.867188 230.296875 173.296875 230.738281 C 174.726562 231.175781 176.171875 231.542969 177.636719 231.839844 C 179.101562 232.140625 180.578125 232.363281 182.066406 232.515625 C 183.550781 232.667969 185.042969 232.746094 186.539062 232.75 Z M 151.363281 186.769531 C 151.375 185.605469 151.441406 184.449219 151.566406 183.292969 C 151.691406 182.136719 151.871094 180.992188 152.109375 179.855469 C 152.34375 178.71875 152.636719 177.59375 152.984375 176.484375 C 153.328125 175.375 153.730469 174.289062 154.183594 173.21875 C 154.636719 172.148438 155.140625 171.105469 155.695312 170.082031 C 156.25 169.0625 156.855469 168.074219 157.507812 167.113281 C 158.160156 166.152344 158.859375 165.226562 159.601562 164.332031 C 160.347656 163.441406 161.132812 162.585938 161.957031 161.773438 C 162.785156 160.957031 163.648438 160.183594 164.554688 159.453125 C 165.457031 158.722656 166.390625 158.039062 167.363281 157.402344 C 168.332031 156.761719 169.332031 156.171875 170.359375 155.632812 C 171.386719 155.09375 172.4375 154.605469 173.511719 154.167969 C 174.589844 153.730469 175.683594 153.34375 176.796875 153.015625 C 177.910156 152.6875 179.035156 152.410156 180.175781 152.191406 C 181.316406 151.972656 182.460938 151.808594 183.617188 151.703125 C 184.773438 151.597656 185.933594 151.546875 187.09375 151.554688 C 188.253906 151.558594 189.414062 151.625 190.566406 151.746094 C 191.722656 151.867188 192.867188 152.042969 194.003906 152.273438 C 195.140625 152.507812 196.265625 152.796875 197.375 153.140625 C 198.484375 153.484375 199.574219 153.878906 200.640625 154.328125 C 201.710938 154.78125 202.757812 155.28125 203.777344 155.835938 C 204.800781 156.386719 205.792969 156.988281 206.753906 157.636719 C 207.714844 158.289062 208.644531 158.984375 209.539062 159.726562 C 210.433594 160.464844 211.289062 161.25 212.105469 162.074219 C 212.921875 162.898438 213.695312 163.761719 214.429688 164.664062 C 215.160156 165.566406 215.847656 166.5 216.488281 167.46875 C 217.132812 168.4375 217.722656 169.433594 218.265625 170.460938 C 218.808594 171.488281 219.300781 172.539062 219.742188 173.613281 C 220.183594 174.6875 220.570312 175.78125 220.902344 176.894531 C 221.234375 178.007812 221.515625 179.132812 221.738281 180.273438 C 221.960938 181.414062 222.125 182.5625 222.238281 183.71875 C 222.347656 184.875 222.398438 186.035156 222.398438 187.195312 C 222.394531 188.359375 222.332031 189.515625 222.21875 190.671875 C 222.101562 191.828125 221.925781 192.976562 221.699219 194.113281 C 221.46875 195.253906 221.183594 196.378906 220.84375 197.488281 C 220.507812 198.601562 220.113281 199.691406 219.667969 200.765625 C 219.21875 201.835938 218.722656 202.882812 218.175781 203.90625 C 217.625 204.929688 217.027344 205.925781 216.378906 206.890625 C 215.734375 207.855469 215.042969 208.785156 214.304688 209.683594 C 213.566406 210.582031 212.789062 211.441406 211.964844 212.261719 C 211.144531 213.082031 210.285156 213.859375 209.386719 214.59375 C 208.488281 215.332031 207.554688 216.023438 206.589844 216.667969 C 205.625 217.3125 204.628906 217.90625 203.605469 218.453125 C 202.582031 219 201.535156 219.496094 200.460938 219.941406 C 199.386719 220.386719 198.296875 220.777344 197.183594 221.113281 C 196.074219 221.449219 194.949219 221.730469 193.8125 221.957031 C 192.671875 222.183594 191.527344 222.355469 190.371094 222.46875 C 189.214844 222.585938 188.058594 222.640625 186.898438 222.640625 L 186.628906 222.640625 C 185.464844 222.628906 184.304688 222.5625 183.148438 222.433594 C 181.992188 222.308594 180.84375 222.128906 179.703125 221.890625 C 178.5625 221.652344 177.4375 221.355469 176.328125 221.007812 C 175.21875 220.660156 174.128906 220.257812 173.054688 219.800781 C 171.984375 219.347656 170.9375 218.839844 169.917969 218.28125 C 168.894531 217.722656 167.90625 217.117188 166.941406 216.460938 C 165.980469 215.804688 165.050781 215.105469 164.160156 214.359375 C 163.265625 213.609375 162.410156 212.824219 161.59375 211.992188 C 160.777344 211.164062 160.003906 210.292969 159.273438 209.386719 C 158.542969 208.480469 157.855469 207.542969 157.21875 206.570312 C 156.578125 205.59375 155.988281 204.59375 155.449219 203.5625 C 154.90625 202.53125 154.417969 201.476562 153.980469 200.394531 C 153.542969 199.316406 153.15625 198.21875 152.828125 197.101562 C 152.496094 195.984375 152.222656 194.855469 152.003906 193.710938 C 151.785156 192.566406 151.621094 191.414062 151.515625 190.253906 C 151.40625 189.09375 151.355469 187.933594 151.363281 186.769531 Z M 195.894531 190.800781 C 191.421875 195.199219 186.949219 199.605469 183.824219 202.667969 C 183.347656 203.199219 182.78125 203.609375 182.128906 203.898438 C 181.476562 204.1875 180.792969 204.332031 180.078125 204.324219 C 178.816406 204.328125 177.707031 203.917969 176.75 203.09375 C 176.554688 202.910156 176.371094 202.710938 176.203125 202.503906 C 173.828125 200.140625 168.417969 194.640625 165.757812 191.917969 C 165.507812 191.691406 165.285156 191.445312 165.085938 191.175781 C 164.886719 190.90625 164.714844 190.617188 164.574219 190.316406 C 164.429688 190.011719 164.320312 189.695312 164.238281 189.371094 C 164.15625 189.046875 164.109375 188.714844 164.09375 188.382812 C 164.078125 188.046875 164.09375 187.714844 164.144531 187.382812 C 164.191406 187.050781 164.273438 186.726562 164.386719 186.410156 C 164.5 186.097656 164.644531 185.792969 164.816406 185.507812 C 164.988281 185.21875 165.1875 184.953125 165.410156 184.703125 C 165.636719 184.457031 165.882812 184.230469 166.152344 184.03125 C 166.421875 183.832031 166.707031 183.660156 167.011719 183.519531 C 167.3125 183.375 167.628906 183.261719 167.953125 183.179688 C 168.277344 183.101562 168.609375 183.050781 168.941406 183.035156 C 169.277344 183.019531 169.609375 183.035156 169.941406 183.085938 C 170.273438 183.132812 170.597656 183.214844 170.910156 183.328125 C 171.226562 183.441406 171.527344 183.585938 171.816406 183.757812 C 172.101562 183.929688 172.371094 184.128906 172.617188 184.351562 C 172.800781 184.523438 172.972656 184.707031 173.132812 184.898438 C 174.4375 186.203125 178.0625 189.875 180.117188 192.027344 C 183.117188 189.074219 185.996094 186.214844 188.871094 183.367188 L 189.253906 182.984375 L 200.816406 171.628906 C 201.230469 171.128906 201.726562 170.726562 202.300781 170.421875 C 202.875 170.117188 203.488281 169.9375 204.136719 169.878906 C 204.820312 169.808594 205.492188 169.875 206.148438 170.074219 C 206.808594 170.273438 207.402344 170.589844 207.933594 171.027344 C 208.457031 171.457031 208.875 171.96875 209.191406 172.566406 C 209.507812 173.164062 209.695312 173.800781 209.753906 174.472656 C 209.816406 175.148438 209.746094 175.808594 209.550781 176.457031 C 209.351562 177.105469 209.035156 177.691406 208.605469 178.21875 L 207.976562 178.855469 C 204.84375 182 200.367188 186.402344 195.894531 190.800781 Z M 241.878906 302.253906 C 243.085938 299.867188 243.671875 297.335938 243.636719 294.660156 L 243.636719 294.195312 C 243.574219 292.265625 243.183594 290.40625 242.472656 288.613281 C 241.757812 286.820312 240.761719 285.199219 239.484375 283.753906 L 238.71875 282.933594 C 237.175781 281.351562 235.382812 280.136719 233.339844 279.292969 C 231.300781 278.445312 229.175781 278.035156 226.964844 278.058594 L 176.570312 278.164062 L 173.84375 275.445312 C 159.429688 261.082031 145.046875 246.769531 130.703125 232.515625 L 130.542969 232.292969 C 128.960938 230.472656 127.074219 229.070312 124.882812 228.082031 C 122.796875 227.109375 120.609375 226.613281 118.308594 226.59375 L 66.460938 226.660156 C 65.738281 226.632812 65.039062 226.757812 64.371094 227.039062 C 63.703125 227.316406 63.125 227.726562 62.636719 228.265625 L 36.246094 254.75 L 35.929688 255.042969 C 35.6875 255.292969 35.46875 255.5625 35.277344 255.851562 C 35.085938 256.144531 34.925781 256.449219 34.792969 256.773438 C 34.664062 257.097656 34.566406 257.429688 34.5 257.769531 C 34.433594 258.113281 34.402344 258.457031 34.40625 258.808594 C 34.40625 259.15625 34.445312 259.5 34.511719 259.84375 C 34.582031 260.183594 34.6875 260.515625 34.820312 260.835938 C 34.957031 261.15625 35.121094 261.460938 35.316406 261.75 C 35.511719 262.039062 35.734375 262.304688 35.980469 262.550781 L 59.53125 286.019531 C 60.046875 286.523438 60.636719 286.910156 61.308594 287.179688 C 61.976562 287.449219 62.671875 287.578125 63.394531 287.566406 L 74.652344 287.304688 L 141.632812 327.21875 C 144.40625 328.59375 147.328125 329.457031 150.402344 329.8125 C 153.082031 330.160156 155.777344 330.328125 158.480469 330.320312 L 159.691406 330.320312 L 227.996094 330.234375 C 229.699219 330.238281 231.367188 329.984375 232.992188 329.46875 C 234.078125 329.117188 235.117188 328.664062 236.109375 328.105469 C 237.097656 327.546875 238.023438 326.890625 238.882812 326.144531 C 239.742188 325.398438 240.519531 324.570312 241.210938 323.664062 C 241.898438 322.757812 242.492188 321.792969 242.988281 320.765625 C 243.65625 319.390625 244.121094 317.949219 244.386719 316.441406 C 244.652344 314.933594 244.703125 313.417969 244.542969 311.894531 C 244.382812 310.371094 244.015625 308.902344 243.445312 307.480469 C 242.871094 306.0625 242.117188 304.75 241.175781 303.542969 C 241.457031 303.039062 241.707031 302.636719 241.878906 302.253906 Z M 182.90625 288.78125 L 226.992188 288.675781 C 227.789062 288.6875 228.554688 288.847656 229.292969 289.160156 C 230.027344 289.46875 230.675781 289.90625 231.242188 290.46875 L 231.480469 290.695312 C 232.503906 291.824219 233.023438 293.152344 233.035156 294.679688 C 233.042969 295.679688 232.828125 296.628906 232.386719 297.523438 C 230.941406 297.128906 229.46875 296.925781 227.972656 296.921875 L 182.253906 296.980469 C 182.867188 295.222656 183.171875 293.414062 183.167969 291.554688 C 183.144531 290.625 183.058594 289.699219 182.90625 288.78125 Z M 151.867188 319.285156 C 150.109375 319.109375 148.425781 318.664062 146.808594 317.957031 L 78.8125 277.460938 C 78 276.957031 77.117188 276.699219 76.160156 276.695312 C 76.039062 276.695312 75.917969 276.695312 75.777344 276.695312 L 65.402344 276.925781 L 47.242188 258.773438 L 68.613281 237.300781 L 118.199219 237.207031 C 119.015625 237.210938 119.792969 237.386719 120.527344 237.742188 C 121.359375 238.125 122.066406 238.667969 122.644531 239.375 L 170.789062 287.375 C 171.855469 288.425781 172.429688 289.703125 172.515625 291.199219 L 172.515625 291.582031 C 172.542969 293.085938 172.066406 294.40625 171.089844 295.546875 L 170.769531 295.875 C 170.488281 296.148438 170.183594 296.394531 169.855469 296.613281 C 169.527344 296.828125 169.183594 297.011719 168.820312 297.160156 C 168.457031 297.308594 168.082031 297.421875 167.695312 297.496094 C 167.3125 297.574219 166.921875 297.609375 166.53125 297.609375 C 166.136719 297.609375 165.75 297.574219 165.363281 297.496094 C 164.976562 297.421875 164.601562 297.308594 164.238281 297.160156 C 163.875 297.011719 163.53125 296.828125 163.203125 296.613281 C 162.875 296.394531 162.570312 296.148438 162.292969 295.875 L 129.074219 262.769531 C 128.835938 262.492188 128.570312 262.242188 128.28125 262.015625 C 127.988281 261.792969 127.679688 261.605469 127.351562 261.445312 C 127.019531 261.285156 126.675781 261.164062 126.320312 261.074219 C 125.96875 260.988281 125.605469 260.9375 125.242188 260.921875 C 124.875 260.910156 124.511719 260.933594 124.152344 260.996094 C 123.789062 261.058594 123.441406 261.15625 123.101562 261.289062 C 122.757812 261.425781 122.4375 261.59375 122.128906 261.792969 C 121.824219 261.996094 121.542969 262.226562 121.285156 262.484375 C 121.027344 262.746094 120.796875 263.027344 120.597656 263.335938 C 120.398438 263.640625 120.234375 263.964844 120.101562 264.308594 C 119.96875 264.648438 119.871094 265 119.8125 265.363281 C 119.75 265.722656 119.730469 266.085938 119.742188 266.453125 C 119.757812 266.816406 119.8125 267.179688 119.902344 267.535156 C 119.992188 267.890625 120.117188 268.230469 120.277344 268.558594 C 120.4375 268.890625 120.628906 269.199219 120.851562 269.488281 C 121.078125 269.777344 121.328125 270.039062 121.605469 270.277344 L 154.804688 303.40625 L 154.894531 303.496094 C 156.433594 305.019531 158.207031 306.191406 160.210938 307.015625 C 162.214844 307.839844 164.296875 308.25 166.464844 308.25 L 166.558594 308.25 C 167.9375 308.242188 169.289062 308.046875 170.613281 307.667969 L 228.015625 307.5625 L 228.132812 307.5625 C 228.90625 307.570312 229.644531 307.730469 230.355469 308.03125 C 231.066406 308.335938 231.695312 308.761719 232.234375 309.3125 L 232.453125 309.519531 C 232.960938 310.0625 233.347656 310.679688 233.621094 311.371094 C 233.890625 312.058594 234.027344 312.773438 234.03125 313.515625 C 234.019531 315.046875 233.511719 316.390625 232.5 317.539062 L 232.222656 317.824219 C 231.664062 318.382812 231.019531 318.8125 230.292969 319.117188 C 229.5625 319.421875 228.804688 319.574219 228.011719 319.574219 L 159.585938 319.691406 C 157.003906 319.769531 154.429688 319.632812 151.867188 319.285156 Z M 151.867188 319.285156 " fill-opacity="1" fill-rule="nonzero"/></g></svg>