<svg xmlns="http://www.w3.org/2000/svg" xmlns:xlink="http://www.w3.org/1999/xlink" width="500" zoomAndPan="magnify" viewBox="0 0 375 374.999991" height="500" preserveAspectRatio="xMidYMid meet" version="1.0"><defs><clipPath id="cd8b1e1c06"><path d="M 101 34 L 274 34 L 274 347.679688 L 101 347.679688 Z M 101 34 " clip-rule="nonzero"/></clipPath></defs><g clip-path="url(#cd8b1e1c06)"><path fill="#dafdfe" d="M 200.972656 125.136719 C 214.539062 125.136719 235.800781 121.894531 253.019531 104.664062 C 280.042969 77.632812 272.644531 40.644531 272.316406 39.085938 C 272.214844 38.605469 272.050781 38.148438 271.816406 37.714844 C 271.582031 37.285156 271.292969 36.894531 270.945312 36.546875 C 270.597656 36.199219 270.207031 35.910156 269.777344 35.675781 C 269.34375 35.441406 268.890625 35.273438 268.410156 35.175781 C 266.84375 34.847656 229.875 27.449219 202.859375 54.480469 C 198.855469 58.507812 195.414062 62.972656 192.542969 67.875 L 192.542969 39.101562 C 192.542969 38.765625 192.511719 38.4375 192.445312 38.113281 C 192.382812 37.785156 192.285156 37.46875 192.160156 37.164062 C 192.03125 36.855469 191.875 36.566406 191.691406 36.289062 C 191.507812 36.011719 191.296875 35.757812 191.0625 35.523438 C 190.828125 35.289062 190.574219 35.078125 190.296875 34.894531 C 190.019531 34.707031 189.730469 34.554688 189.421875 34.425781 C 189.117188 34.296875 188.800781 34.203125 188.472656 34.136719 C 188.148438 34.074219 187.820312 34.039062 187.488281 34.039062 C 187.15625 34.039062 186.828125 34.074219 186.5 34.136719 C 186.175781 34.203125 185.859375 34.296875 185.550781 34.425781 C 185.246094 34.554688 184.953125 34.707031 184.679688 34.894531 C 184.402344 35.078125 184.144531 35.289062 183.910156 35.523438 C 183.675781 35.757812 183.46875 36.011719 183.28125 36.289062 C 183.097656 36.566406 182.941406 36.855469 182.816406 37.164062 C 182.6875 37.46875 182.59375 37.785156 182.527344 38.113281 C 182.464844 38.4375 182.429688 38.765625 182.429688 39.101562 L 182.429688 67.875 C 179.558594 62.972656 176.121094 58.507812 172.113281 54.480469 C 145.09375 27.445312 108.125 34.847656 106.566406 35.175781 C 106.085938 35.273438 105.628906 35.441406 105.199219 35.675781 C 104.765625 35.910156 104.375 36.199219 104.03125 36.546875 C 103.683594 36.894531 103.390625 37.285156 103.160156 37.714844 C 102.925781 38.148438 102.757812 38.605469 102.65625 39.085938 C 102.328125 40.648438 94.929688 77.632812 121.949219 104.664062 C 139.171875 121.898438 160.433594 125.136719 173.996094 125.136719 C 176.8125 125.140625 179.625 124.996094 182.429688 124.703125 L 182.429688 158.9375 C 179.558594 154.035156 176.121094 149.570312 172.113281 145.546875 C 145.09375 118.507812 108.125 125.917969 106.566406 126.238281 C 106.085938 126.339844 105.628906 126.507812 105.195312 126.742188 C 104.765625 126.976562 104.375 127.265625 104.027344 127.613281 C 103.683594 127.960938 103.390625 128.347656 103.15625 128.78125 C 102.925781 129.214844 102.757812 129.667969 102.65625 130.148438 C 102.328125 131.710938 94.929688 168.699219 121.949219 195.730469 C 139.171875 212.964844 160.433594 216.203125 173.996094 216.203125 C 176.8125 216.207031 179.625 216.0625 182.429688 215.769531 L 182.429688 250.003906 C 179.558594 245.101562 176.121094 240.636719 172.113281 236.609375 C 145.09375 209.582031 108.125 216.984375 106.566406 217.308594 C 106.085938 217.40625 105.628906 217.574219 105.199219 217.808594 C 104.765625 218.042969 104.375 218.332031 104.03125 218.679688 C 103.683594 219.027344 103.390625 219.417969 103.160156 219.847656 C 102.925781 220.28125 102.757812 220.738281 102.65625 221.21875 C 102.328125 222.78125 94.929688 259.765625 121.949219 286.796875 C 139.171875 304.03125 160.433594 307.269531 173.996094 307.269531 C 176.8125 307.273438 179.625 307.128906 182.429688 306.835938 L 182.429688 342.652344 C 182.429688 342.984375 182.460938 343.3125 182.527344 343.640625 C 182.589844 343.964844 182.6875 344.28125 182.8125 344.589844 C 182.941406 344.894531 183.097656 345.1875 183.28125 345.464844 C 183.464844 345.738281 183.675781 345.996094 183.910156 346.230469 C 184.144531 346.464844 184.398438 346.675781 184.675781 346.859375 C 184.953125 347.042969 185.242188 347.199219 185.550781 347.328125 C 185.855469 347.453125 186.171875 347.550781 186.5 347.613281 C 186.824219 347.679688 187.152344 347.710938 187.484375 347.710938 C 187.816406 347.710938 188.144531 347.679688 188.472656 347.613281 C 188.796875 347.550781 189.113281 347.453125 189.421875 347.328125 C 189.726562 347.199219 190.019531 347.042969 190.292969 346.859375 C 190.570312 346.675781 190.828125 346.464844 191.0625 346.230469 C 191.296875 345.996094 191.503906 345.738281 191.691406 345.464844 C 191.875 345.1875 192.03125 344.894531 192.15625 344.589844 C 192.285156 344.28125 192.378906 343.964844 192.445312 343.640625 C 192.511719 343.3125 192.542969 342.984375 192.542969 342.652344 L 192.542969 306.835938 C 195.34375 307.128906 198.15625 307.273438 200.972656 307.273438 C 214.539062 307.273438 235.800781 304.03125 253.019531 286.800781 C 280.042969 259.765625 272.644531 222.78125 272.316406 221.21875 C 272.214844 220.738281 272.050781 220.28125 271.816406 219.851562 C 271.582031 219.417969 271.292969 219.03125 270.945312 218.683594 C 270.597656 218.335938 270.207031 218.046875 269.777344 217.8125 C 269.34375 217.578125 268.890625 217.410156 268.410156 217.308594 C 266.84375 216.980469 229.871094 209.585938 202.859375 236.613281 C 198.855469 240.640625 195.414062 245.105469 192.542969 250.007812 L 192.542969 215.769531 C 195.347656 216.0625 198.15625 216.207031 200.976562 216.207031 C 214.539062 216.207031 235.804688 212.964844 253.023438 195.734375 C 280.042969 168.699219 272.648438 131.714844 272.320312 130.152344 C 272.21875 129.671875 272.050781 129.214844 271.816406 128.785156 C 271.582031 128.351562 271.292969 127.964844 270.945312 127.617188 C 270.597656 127.269531 270.210938 126.980469 269.777344 126.746094 C 269.347656 126.511719 268.890625 126.34375 268.410156 126.242188 C 266.847656 125.910156 229.875 118.519531 202.863281 145.546875 C 198.855469 149.574219 195.417969 154.039062 192.546875 158.941406 L 192.546875 124.703125 C 195.347656 124.996094 198.15625 125.140625 200.972656 125.136719 Z M 210.007812 61.632812 C 228.703125 42.933594 253.859375 43.625 262.90625 44.589844 C 263.875 53.664062 264.554688 78.816406 245.871094 97.515625 C 227.1875 116.210938 202.050781 115.53125 192.972656 114.554688 C 192.003906 105.484375 191.324219 80.328125 210.007812 61.632812 Z M 181.996094 114.554688 C 172.9375 115.527344 147.789062 116.207031 129.101562 97.515625 C 110.410156 78.820312 111.097656 53.652344 112.070312 44.589844 C 121.144531 43.621094 146.277344 42.9375 164.960938 61.632812 C 183.648438 80.328125 182.964844 105.496094 181.996094 114.554688 Z M 181.996094 205.621094 C 172.9375 206.59375 147.789062 207.273438 129.101562 188.582031 C 110.410156 169.886719 111.097656 144.71875 112.070312 135.65625 C 121.144531 134.6875 146.277344 134.003906 164.960938 152.699219 C 183.648438 171.394531 182.964844 196.5625 181.996094 205.621094 Z M 181.996094 296.6875 C 172.9375 297.664062 147.789062 298.339844 129.101562 279.644531 C 110.410156 260.953125 111.097656 235.785156 112.070312 226.722656 C 121.144531 225.757812 146.277344 225.070312 164.960938 243.765625 C 183.648438 262.460938 182.964844 287.628906 181.996094 296.6875 Z M 210.007812 243.765625 C 228.703125 225.070312 253.859375 225.753906 262.90625 226.722656 C 263.875 235.796875 264.554688 260.949219 245.871094 279.644531 C 227.1875 298.34375 202.050781 297.660156 192.972656 296.6875 C 192.003906 287.617188 191.324219 262.460938 210.007812 243.765625 Z M 210.007812 152.699219 C 228.703125 134.003906 253.859375 134.691406 262.90625 135.65625 C 263.875 144.730469 264.554688 169.882812 245.871094 188.582031 C 227.1875 207.277344 202.050781 206.597656 192.972656 205.621094 C 192.003906 196.550781 191.324219 171.394531 210.007812 152.699219 Z M 210.007812 152.699219 " fill-opacity="1" fill-rule="nonzero"/></g></svg>