<svg xmlns="http://www.w3.org/2000/svg" xmlns:xlink="http://www.w3.org/1999/xlink" width="500" zoomAndPan="magnify" viewBox="0 0 375 374.999991" height="500" preserveAspectRatio="xMidYMid meet" version="1.0"><defs><clipPath id="e26392dd3e"><path d="M 190 196 L 281 196 L 281 349.421875 L 190 349.421875 Z M 190 196 " clip-rule="nonzero"/></clipPath><clipPath id="be2a254742"><path d="M 107 25.421875 L 349.421875 25.421875 L 349.421875 268 L 107 268 Z M 107 25.421875 " clip-rule="nonzero"/></clipPath><clipPath id="2b1cd16fae"><path d="M 25.421875 94 L 202 94 L 202 287 L 25.421875 287 Z M 25.421875 94 " clip-rule="nonzero"/></clipPath></defs><g clip-path="url(#e26392dd3e)"><path fill="#dafdfe" d="M 195.511719 349.175781 C 194.859375 349.175781 194.21875 349.046875 193.609375 348.785156 C 191.78125 348.015625 190.589844 346.214844 190.605469 344.210938 L 191.589844 262.78125 C 191.621094 260.066406 193.8125 257.886719 196.542969 257.929688 C 199.257812 257.960938 201.421875 260.183594 201.394531 262.882812 L 200.566406 332.285156 L 259.585938 273.265625 C 260.136719 272.554688 280.164062 247.386719 265.277344 202.714844 C 264.421875 200.144531 265.816406 197.386719 268.371094 196.515625 C 270.972656 195.671875 273.71875 197.050781 274.574219 199.609375 C 291.273438 249.710938 267.835938 278.65625 266.820312 279.859375 L 198.984375 347.738281 C 198.039062 348.683594 196.789062 349.175781 195.511719 349.175781 " fill-opacity="1" fill-rule="nonzero"/></g><g clip-path="url(#be2a254742)"><path fill="#dafdfe" d="M 118.511719 177.910156 L 157.769531 217.164062 L 197.039062 256.433594 C 202.585938 252.121094 219.285156 238.558594 266.71875 197.457031 C 324.355469 147.515625 336.6875 59.011719 338.980469 35.953125 C 315.90625 38.242188 227.359375 50.621094 177.460938 108.203125 C 136.726562 155.210938 123.042969 172.042969 118.511719 177.910156 Z M 196.5 267.734375 C 195.222656 267.734375 193.972656 267.238281 193.027344 266.296875 L 108.636719 181.890625 C 107.1875 180.453125 106.792969 178.273438 107.621094 176.429688 C 109.144531 173.046875 132.484375 145.148438 170.054688 101.785156 C 230.25 32.320312 339.476562 25.925781 344.078125 25.6875 C 345.605469 25.574219 346.824219 26.140625 347.8125 27.117188 C 348.785156 28.101562 349.308594 29.449219 349.234375 30.839844 C 349.003906 35.453125 342.597656 144.667969 273.136719 204.863281 C 229.785156 242.449219 201.886719 265.773438 198.503906 267.296875 C 197.863281 267.589844 197.183594 267.734375 196.5 267.734375 " fill-opacity="1" fill-rule="nonzero"/></g><g clip-path="url(#2b1cd16fae)"><path fill="#dafdfe" d="M 148.878906 286.511719 C 147.617188 286.511719 146.351562 286.015625 145.425781 285.089844 L 89.832031 229.511719 C 88.453125 228.128906 88.03125 226.054688 88.742188 224.238281 L 104.863281 183.414062 L 30.710938 184.316406 C 28.445312 184.171875 26.90625 183.152344 26.136719 181.308594 C 25.367188 179.480469 25.773438 177.359375 27.179688 175.949219 L 94.726562 108.40625 C 96.265625 107.097656 125.207031 83.644531 175.3125 100.34375 C 177.882812 101.203125 179.261719 103.976562 178.40625 106.546875 C 177.546875 109.117188 174.789062 110.46875 172.203125 109.65625 C 127.5625 94.753906 102.378906 114.796875 101.320312 115.636719 L 42.617188 174.367188 L 112.035156 173.523438 C 113.894531 173.699219 115.203125 174.308594 116.132812 175.644531 C 117.0625 176.996094 117.25 178.710938 116.65625 180.234375 L 99.039062 224.847656 L 150.070312 275.878906 L 194.699219 258.277344 C 197.210938 257.277344 200.058594 258.511719 201.058594 261.023438 C 202.046875 263.550781 200.8125 266.398438 198.300781 267.386719 L 150.679688 286.175781 C 150.101562 286.410156 149.488281 286.511719 148.878906 286.511719 " fill-opacity="1" fill-rule="nonzero"/></g><path fill="#dafdfe" d="M 42.589844 288.878906 C 41.339844 288.878906 40.078125 288.398438 39.132812 287.441406 C 37.214844 285.523438 37.214844 282.414062 39.132812 280.511719 L 66.796875 252.832031 C 68.714844 250.917969 71.808594 250.917969 73.726562 252.832031 C 75.644531 254.75 75.644531 257.84375 73.726562 259.761719 L 46.058594 287.441406 C 45.101562 288.398438 43.851562 288.878906 42.589844 288.878906 " fill-opacity="1" fill-rule="nonzero"/><path fill="#dafdfe" d="M 42.398438 337.425781 C 41.136719 337.425781 39.886719 336.949219 38.929688 335.988281 C 37.011719 334.074219 37.011719 330.980469 38.929688 329.0625 L 90.976562 277.011719 C 92.894531 275.097656 96.003906 275.097656 97.90625 277.011719 C 99.824219 278.929688 99.824219 282.023438 97.90625 283.941406 L 45.855469 335.988281 C 44.898438 336.949219 43.648438 337.425781 42.398438 337.425781 " fill-opacity="1" fill-rule="nonzero"/><path fill="#dafdfe" d="M 90.949219 337.238281 C 89.699219 337.238281 88.4375 336.757812 87.480469 335.800781 C 85.574219 333.882812 85.574219 330.789062 87.480469 328.875 L 115.160156 301.195312 C 117.074219 299.277344 120.167969 299.277344 122.085938 301.195312 C 124.003906 303.109375 124.003906 306.203125 122.085938 308.121094 L 94.421875 335.800781 C 93.460938 336.757812 92.199219 337.238281 90.949219 337.238281 " fill-opacity="1" fill-rule="nonzero"/><path fill="#dafdfe" d="M 330.179688 107.417969 L 330.167969 107.417969 C 268.460938 107.1875 267.515625 45.390625 267.515625 44.765625 C 267.5 42.054688 269.679688 39.867188 272.394531 39.847656 C 274.835938 39.710938 277.304688 42.019531 277.320312 44.714844 C 277.332031 46.871094 278.292969 97.425781 330.210938 97.617188 C 332.910156 97.628906 335.105469 99.824219 335.089844 102.539062 C 335.074219 105.238281 332.882812 107.417969 330.179688 107.417969 " fill-opacity="1" fill-rule="nonzero"/><path fill="#dafdfe" d="M 235.753906 109.8125 C 227.898438 109.8125 220.535156 112.863281 214.988281 118.410156 C 209.441406 123.960938 206.375 131.335938 206.375 139.164062 C 206.375 147.019531 209.441406 154.398438 214.988281 159.933594 C 220.535156 165.480469 227.898438 168.542969 235.753906 168.542969 C 243.597656 168.542969 250.960938 165.480469 256.507812 159.933594 C 262.054688 154.398438 265.121094 147.019531 265.121094 139.164062 C 265.121094 131.335938 262.054688 123.960938 256.507812 118.410156 C 250.960938 112.863281 243.597656 109.8125 235.753906 109.8125 Z M 235.753906 178.347656 C 225.285156 178.347656 215.453125 174.265625 208.058594 166.875 C 200.652344 159.46875 196.574219 149.636719 196.574219 139.164062 C 196.574219 128.707031 200.652344 118.875 208.058594 111.484375 C 215.453125 104.078125 225.285156 100.011719 235.753906 100.011719 C 246.210938 100.011719 256.042969 104.078125 263.449219 111.484375 C 270.839844 118.875 274.921875 128.707031 274.921875 139.164062 C 274.921875 149.636719 270.839844 159.46875 263.449219 166.875 C 256.042969 174.265625 246.210938 178.347656 235.753906 178.347656 " fill-opacity="1" fill-rule="nonzero"/></svg>