<svg xmlns="http://www.w3.org/2000/svg" xmlns:xlink="http://www.w3.org/1999/xlink" width="500" zoomAndPan="magnify" viewBox="0 0 375 374.999991" height="500" preserveAspectRatio="xMidYMid meet" version="1.0"><defs><clipPath id="dffe97f366"><path d="M 19.898438 173 L 181 173 L 181 275.054688 L 19.898438 275.054688 Z M 19.898438 173 " clip-rule="nonzero"/></clipPath></defs><path fill="#dafdfe" d="M 85.1875 100.742188 C 102.855469 100.742188 117.195312 115.074219 117.195312 132.730469 C 117.195312 150.386719 102.855469 164.691406 85.1875 164.691406 C 67.523438 164.691406 53.210938 150.386719 53.210938 132.730469 C 53.210938 115.074219 67.523438 100.742188 85.1875 100.742188 " fill-opacity="1" fill-rule="nonzero"/><g clip-path="url(#dffe97f366)"><path fill="#dafdfe" d="M 167.464844 209.679688 C 162.207031 210.390625 148.492188 210.75 141.8125 207.574219 C 137.949219 205.824219 133.734375 195.644531 131.953125 191.398438 C 130.914062 189.292969 130.203125 187.542969 129.488281 186.148438 C 126.339844 180.152344 120.015625 173.148438 106.65625 173.148438 L 65.859375 173.148438 C 55.320312 173.148438 47.214844 178.402344 41.601562 188.609375 L 40.207031 191.074219 C 34.921875 200.894531 29.308594 211.429688 27.171875 219.175781 C 25.0625 227.25 20.492188 250.453125 20.164062 251.492188 C 18.738281 258.171875 23.3125 264.519531 29.992188 265.914062 C 30.707031 265.914062 31.746094 266.273438 32.457031 266.273438 C 38.097656 266.273438 43.355469 262.058594 44.421875 256.417969 C 44.421875 256.0625 48.996094 233.242188 51.101562 225.496094 C 51.785156 222.679688 53.894531 218.109375 56.003906 213.539062 L 54.25 266.953125 C 54.25 271.199219 57.785156 275.054688 62 275.054688 L 107.339844 275.054688 C 111.554688 275.054688 115.089844 271.523438 115.089844 266.953125 L 113.335938 212.144531 C 117.195312 219.175781 122.480469 226.890625 130.558594 230.421875 C 145.671875 237.457031 167.464844 234.636719 169.929688 234.636719 C 176.609375 233.570312 181.539062 227.605469 180.5 220.925781 C 180.5 213.539062 174.5 208.996094 167.464844 209.679688 " fill-opacity="1" fill-rule="nonzero"/></g><path fill="#dafdfe" d="M 289.851562 100.742188 C 307.519531 100.742188 321.832031 115.074219 321.832031 132.730469 C 321.832031 150.386719 307.519531 164.691406 289.851562 164.691406 C 272.15625 164.691406 257.84375 150.386719 257.84375 132.730469 C 257.84375 115.074219 272.15625 100.742188 289.851562 100.742188 " fill-opacity="1" fill-rule="nonzero"/><path fill="#dafdfe" d="M 347.484375 218.820312 C 345.40625 211.105469 340.121094 200.539062 334.507812 190.71875 L 333.082031 188.253906 C 327.472656 178.046875 319.367188 172.792969 308.824219 172.792969 L 268.386719 172.792969 C 255.023438 172.792969 248.699219 179.828125 245.523438 185.792969 C 244.839844 187.1875 244.128906 188.964844 243.058594 191.074219 C 241.308594 195.289062 237.089844 205.464844 233.230469 207.21875 C 226.195312 210.390625 212.832031 210.035156 207.578125 209.324219 C 200.867188 208.640625 194.542969 213.210938 193.859375 219.886719 C 192.792969 226.566406 197.71875 232.886719 204.402344 233.570312 C 206.863281 233.925781 228.660156 236.746094 243.769531 229.355469 C 251.878906 225.496094 257.488281 218.109375 260.992188 211.105469 L 259.242188 265.914062 C 259.242188 270.128906 262.773438 273.988281 266.988281 273.988281 L 312.328125 273.988281 C 316.574219 273.988281 320.078125 270.484375 320.078125 265.914062 L 318.328125 212.5 C 320.433594 217.070312 322.542969 221.640625 323.226562 224.457031 C 325.332031 231.816406 329.90625 255.023438 329.90625 255.378906 C 330.976562 261.34375 336.230469 265.203125 341.871094 265.203125 C 342.585938 265.203125 343.625 265.203125 344.335938 264.847656 C 351.015625 263.453125 355.234375 257.132812 354.164062 250.453125 C 354.164062 250.097656 349.621094 227.25 347.484375 218.820312 " fill-opacity="1" fill-rule="nonzero"/><path fill="#dafdfe" d="M 149.53125 140.445312 L 152.707031 136.589844 C 154.816406 134.125 157.636719 133.085938 160.785156 133.085938 L 198.757812 133.085938 L 196.679688 143.976562 C 195.9375 146.769531 199.117188 148.90625 201.578125 147.125 L 229.699219 126.410156 C 231.480469 124.984375 231.480469 122.523438 229.699219 121.484375 L 201.578125 100.742188 C 199.472656 98.988281 196.324219 101.097656 196.679688 103.914062 L 198.757812 114.808594 L 160.101562 114.808594 C 151.3125 114.808594 144.273438 121.839844 144.273438 130.625 L 144.273438 139.050781 C 144.273438 141.160156 147.777344 142.554688 149.53125 140.445312 " fill-opacity="1" fill-rule="nonzero"/><path fill="#dafdfe" d="M 173.460938 193.507812 C 175.570312 195.289062 178.71875 193.179688 178.359375 190.363281 L 176.28125 179.46875 L 214.941406 179.46875 C 223.730469 179.46875 230.765625 172.4375 230.765625 163.652344 L 230.765625 155.582031 C 230.765625 152.761719 227.261719 151.695312 225.480469 153.445312 L 222.335938 157.332031 C 220.226562 159.796875 217.40625 160.835938 214.257812 160.835938 L 176.28125 160.835938 L 178.359375 149.941406 C 179.074219 147.125 175.925781 145.015625 173.460938 146.769531 L 145.3125 167.511719 C 143.5625 168.933594 143.5625 171.367188 145.3125 172.4375 L 173.460938 193.507812 " fill-opacity="1" fill-rule="nonzero"/></svg>